<svg version="1.1" xmlns="http://www.w3.org/2000/svg" viewBox="0 0 250 250"><desc>Created with Snap</desc><defs></defs><g transform="matrix(0.0842,0,0,0.0842,55.2884,152.532)"><g transform="matrix(6.0505,0,0,6.0505,-381.6901,-1537.2742)">
<g id="gSku8oxh7f55i">
	<g>
		<g>
			<path fill="#5ca4a9" d="M392.57285,224.51701c-0.08151,0.62656-0.0206,0.27409,0.14642-1.46167l0.12323-1.2327
				L392.57285,224.51701z" style=""></path>
			<path fill="#5ca4a9" d="M393.64902,212.83205c0.10089-2.04865,0.21432-4.41219,0.14737-3.08481
				c-0.10083,2.08025-0.11807,2.4359-0.22791,4.70497c-0.15485,1.62057-0.22559,2.36018-0.26184,2.73943
				c-0.0639,0.63853-0.25946,2.59171-0.36371,3.6328c0.1813-2.26295,0.61575-5.11548,0.71158-8.12035
				C393.68652,212.05995,393.65613,212.68448,393.64902,212.83205z" style=""></path>
			<path fill="#5ca4a9" d="M332.51883,59.45102l0.78238,0.77569C333.08575,60.01305,332.81882,59.74841,332.51883,59.45102z" style=""></path>
			<path fill="#5ca4a9" d="M239.38921,11.36938c0.79591,0.15163,1.14119,0.15204,1.19395,0.0968
				C239.83757,11.35505,239.22452,11.2701,239.38921,11.36938z" style=""></path>
			<path fill="#5ca4a9" d="M221.51466,7.74416c0.38783,0.06377,0.71362,0.11744,1.06447,0.17512
				C222.17888,7.80024,221.7719,7.7128,221.51466,7.74416z" style=""></path>
			<path fill="#5ca4a9" d="M332.51883,59.45102l-2.00729-1.99924C330.29736,57.39437,331.52313,58.49612,332.51883,59.45102z" style=""></path>
			<path fill="#5ca4a9" d="M393.68866,189.33292c0.03229,0.58632,0.05927,1.07562,0.08426,1.53049
				c-0.02609-0.48488-0.05148-0.95374-0.07751-1.43788C393.69324,189.39581,393.69141,189.37059,393.68866,189.33292z" style=""></path>
			<path fill="#5ca4a9" d="M362.65897,94.93796l0.47348,0.71769c0.1546,0.19178,0.30389,0.37685,0.45068,0.55903L362.65897,94.93796
				z" style=""></path>
			<path fill="#5ca4a9" d="M379.37418,126.53624c-0.30609-0.74931-0.48798-0.97783-0.64005-1.25013
				c0.20642,0.40852,0.4502,0.95499,0.72778,1.60809C379.4808,126.90046,379.45667,126.79562,379.37418,126.53624z" style=""></path>
			<path fill="#5ca4a9" d="M393.0993,181.34511l0.1033,1.00075C393.17569,182.08516,393.13052,181.64799,393.0993,181.34511z" style=""></path>
			<path fill="#5ca4a9" d="M347.30878,74.4128c-0.01694-0.06516-0.08182-0.17931-0.16095-0.29323
				C347.12845,74.13666,347.19498,74.24914,347.30878,74.4128z" style=""></path>
			<path fill="#5ca4a9" d="M382.9368,264.7301c-0.00916,0.02725,0.00308-0.00162,0.00308-0.00162
				C383.01086,264.53308,383.03226,264.4726,382.9368,264.7301z" style=""></path>
			<polygon fill="#5ca4a9" points="392.57285,224.51701 392.48669,225.08469 392.46808,225.20755 			" style=""></polygon>
			<path fill="#5ca4a9" d="M188.01703,5.84146c0.06606,0.00444,0.08871,0.00586,0.15063,0.01007
				C189.04726,5.72983,188.54666,5.76328,188.01703,5.84146z" style=""></path>
			<path fill="#5ca4a9" d="M6.66602,217.88373c0.79488-3.58582,2.07069,5.53807,2.81227,0.18056
				C9.02472,218.61253,6.9658,213.45645,6.66602,217.88373z" style=""></path>
			<path fill="#5ca4a9" d="M393.64072,188.4082c-0.02576-0.48196-0.05182-0.97173-0.07797-1.4628
				C393.59827,187.61183,393.62213,188.05981,393.64072,188.4082z" style=""></path>
			<path fill="#5ca4a9" d="M9.47829,218.06429l0.01002-0.0009l0.06622-0.54863
				C9.52287,217.74223,9.50513,217.87051,9.47829,218.06429z" style=""></path>
			<path fill="#5ca4a9" d="M113.51894,26.21132c0.22515,0.0901,0.56355,0.07097,0.9102,0.03996
				C114.357,26.16852,114.13983,26.13486,113.51894,26.21132z" style=""></path>
			<path fill="#5ca4a9" d="M168.62817,9.70078l-1.41583,0.1544C167.78008,9.82673,168.23337,9.76536,168.62817,9.70078z" style=""></path>
			<path fill="#5ca4a9" d="M88.62491,42.97131c-0.6769,0.38673-0.98252,0.41688-1.74909,1.16221
				c0.11353-0.01213,0.21576-0.03716,0.34167-0.07931C87.43575,43.70534,87.80614,43.34663,88.62491,42.97131z" style=""></path>
			<path fill="#5ca4a9" d="M64.829,63.02451c0.18246-0.05097,0.3867-0.1552,0.58031-0.23205
				c0.20657-0.22986,0.44785-0.49828,0.66075-0.7351L64.829,63.02451z" style=""></path>
			<path fill="#5ca4a9" d="M331.68362,341.12329c0.52887-0.41315,0.87015-0.65689,1.14249-0.84116
				C332.40527,340.52036,335.74695,337.5275,331.68362,341.12329z" style=""></path>
			<path fill="#5ca4a9" d="M393.69327,189.31683c-0.01321-0.2291-0.02701-0.46603-0.05255-0.90863
				c0.0188,0.35114,0.03696,0.68813,0.05469,1.01732C393.70157,189.51431,393.70389,189.53371,393.69327,189.31683z" style=""></path>
			<path fill="#5ca4a9" d="M92.85168,50.87225l-3.86663,2.71897C90.10648,52.88197,91.50804,51.8911,92.85168,50.87225z" style=""></path>
			<path fill="#5ca4a9" d="M128.55786,373.3313l1.04248,0.35098C129.22145,373.49384,128.85654,373.35858,128.55786,373.3313z" style=""></path>
			<path fill="#5ca4a9" d="M78.47362,62.85932c-0.89626,0.2632-1.71961,0.69093-2.50961,1.2004
				c-0.08167,0.20036-0.19614,0.40592-0.19902,0.59294L78.47362,62.85932z" style=""></path>
			<path fill="#5ca4a9" d="M332.8349,340.27621l-0.00879,0.00592L332.8349,340.27621z" style=""></path>
			<path fill="#5ca4a9" d="M354.29959,316.62836c-2.82175,3.66525-1.23959,1.78894-1.7872,2.60721
				c-3.53165,4.2493-1.7149,1.90097-2.97656,3.2963c-1.08508,1.32709-2.05154,2.50931-2.9501,3.60818
				c-0.92288,1.06995-1.80118,2.03427-2.67624,2.97629c-0.14807,0.12463-0.49548,0.48425-0.1174,0.03604
				c-2.32126,2.82339-7.5408,7.75226-10.51111,10.78903c-0.24734,0.19788-0.37698,0.29224-0.44608,0.33481
				c0.57739-0.38907,0.71878-0.39337,0.65842-0.2515c-1.548,1.38293-2.79425,2.65585-3.46127,3.08261
				c0.95212-0.8446,0.99744-0.95245,1.41641-1.37671l-1.58777,1.48666c-1.58398,1.16473,2.1756-2.02014,2.08838-2.11542
				c-1.55676,1.43427-3.24692,2.9917-4.84335,4.46262c-1.64844,1.41196-3.23389,2.7092-4.51315,3.7106
				c-0.65637,0.26712,5.8725-4.81421,2.38565-2.2319c1.33975-1.00742,2.62372-2.0816,3.87915-3.19025
				c-3.06454,2.32446,2.29968-2.00308-0.54523,0.09833c-2.46161,2.19894-3.9881,3.25134-5.384,4.45502
				c-1.4447,1.14395-2.79831,2.40393-5.51727,4.26459c-1.12726,0.96771,0.50635-0.14285-0.61993,0.82843
				c-3.70355,2.87317-5.30243,3.8082-6.68585,4.49765c-1.36423,0.71948-2.46735,1.25931-5.25211,3.27997
				c-1.41861,1.08047-1.84625,1.7114-6.15921,4.0498l1.27393-1.1264c-5.51889,3.1987-2.92242,2.23666-8.93417,5.18634
				c0.98618-0.67847,4.39029-2.43246,3.51447-2.02139c-3.97086,1.75974-2.62006,1.595-5.56863,3.1492
				c-0.25232,0.0116-0.50635,0.01868-0.76654,0.01288c-6.11575,2.93646-12.84201,6.24429-19.93384,8.78241
				c0.35089-0.25391,1.52176-0.79596-0.18106-0.33411c-4.40552,1.74982-9.28061,3.12228-14.10963,4.44516
				c-4.89006,1.10956-9.73746,2.17221-14.2636,2.75095l-3.33395,1.09442c-0.79692,0.14606-1.52386,0.00656-0.66957-0.19257
				c-3.54718,0.30197-0.13112,0.31949-1.79213,0.73663c-1.99983,0.31534-2.68916,0.09384-1.4433-0.22281
				c-6.09737,1.4928-17.68427,2.79633-24.30521,2.35684l1.27975-0.21735c-5.12784-0.1561-5.78972,1.17056-10.56601,0.61505
				l0.91733-0.09872c-11.13945-0.55188-23.50162-1.55582-31.64142-4.2623c-0.88202,0.33951-3.55714-0.35663-6.12068-0.98328
				c-2.57884-0.56683-4.97887-1.37106-5.52293-0.67654c-5.94861-2.3978-4.15268-2.09955-12.43422-5.42493
				c-2.23703-0.78052-3.66299-0.21402-6.4942-1.07886l0.23732-0.85721l-4.06641-0.55084
				c-0.53909-0.57303-1.05095-1.2038-1.56102-1.82718l-2.60768-0.89984c0.98152,0.49521,1.97876,1.32407,1.72757,1.49893
				c-2.05685-0.67773-4.41248-1.88129-6.2216-2.9801c-1.7879-1.14987-3.00577-2.24719-2.95212-2.48166
				c-3.14364-1.26862-6.29781-2.54141-9.3594-4.02252c0.38805-0.23889,1.93536,0.47833,3.21938,0.92145
				c-5.19038-1.7894-0.35817-1.4043-5.11273-3.04004c0.46701,0.52634-0.60524,0.34219-0.80467,0.46298
				c-0.95029-0.84134-2.58509-2.06094-4.4473-3.30603c-1.85031-1.26312-4.00453-2.43558-5.76571-3.55133l1.04749-0.14264
				c-6.04204-4.43558-13.07642-8.90768-19.35432-14.54666c2.05644,2.24078,0.68652,2.81952-1.30439,1.3035l0.02241-1.54849
				c-1.70712-0.4812,1.68529,2.02402-1.42185,0.57162c-2.25809-2.24606-0.65211-2.46686,0.91664-1.5209l-3.06989-2.31369
				c0.0802-0.42139,0.86191,0.05399,1.33863-0.12738c-1.64693-0.54181-3.97411-5.36578-6.39629-6.10245l0.11069-0.41611
				c-1.44891-1.51337-2.7191-2.7995-3.88561-3.95453c-1.12616-1.19388-2.13755-2.26605-3.11573-3.30319
				c-1.97477-2.05933-3.82678-3.97482-5.94014-6.6633c-0.9501,0.60419-2.42739-1.64737-4.4332-2.6871
				c-1.3482-2.1615-2.66274-4.5116-4.0888-6.92139c-1.39748-2.43149-2.76342-5.02225-4.48364-7.51904
				c-2.75651-3.30292-1.49818-0.52582-3.09343-1.80191c0.74487-0.84094-2.41829-6.01489-0.15478-3.69894
				c-1.96541-3.06512-3.0579-5.11588-4.38007-7.31876c-0.67975-1.09344-1.39149-2.23843-2.23867-3.60095
				c-0.81152-1.38687-1.75265-2.99527-2.92218-4.99411c0.01516,1.10077,0.32088,2.21347-0.27024,1.84497
				c-0.88514-1.45102-1.21288-3.66821-0.62117-3.66925l0.29331,0.35269c-2.87392-4.39789-4.43587-10.2952-5.55288-15.93097
				c-0.66286-2.78854-1.05137-5.57556-1.70241-8.06467c-0.31848-1.24739-0.68065-2.42834-1.11077-3.52353
				c-0.3734-1.11116-0.817-2.13582-1.35731-3.0549l0.22676,0.41595c-1.05203-2.65361-2.29101-5.28337-3.19331-8.00974
				c-0.57192-3.89836,1.31448,2.1248,1.45336-0.87537c-0.92034-2.14523-1.54868-4.12245-2.00808-5.98163
				c-0.36781-1.87621-0.56997-3.63449-0.74778-5.34102c-0.4271-3.40874-0.45474-6.63391-1.48239-10.34198
				c0.36139-0.76949,0.59705-1.66481,0.73528-2.65869c0.18408-0.99774,0.28438-2.09518,0.31485-3.26534
				c0.1014-2.34108-0.21967-4.97156-0.29872-7.68126c-0.09773-2.70732-0.27182-5.48671-0.21805-8.07674
				c0.15091-2.58713,0.45839-4.98438,1.11793-6.90596l-0.85107,0.40157c-0.70673-2.08675,0.5746-2.42953,0.93246-3.89616
				c-0.66326,0.15642-0.96736,2.13797-1.28839,0.84358c0.276-8.65219,1.75941-17.53343,4.22718-26.16089
				c2.54628-8.60782,5.59186-17.07451,9.13735-25.10519c2.4297-5.91011-2.57298-4.99408,2.3469-11.80092l0.4855,2.75227
				c3.55096-12.75478,11.91142-23.80946,18.17231-35.00535c-0.18162,0.81396,0.14059,1.07164-0.55219,2.11013
				c2.39271-1.59592,5.96499-7.98532,5.326-8.57811c1.34828-1.4822,0.89963,0.12506,2.01749-0.54903
				c2.19607-1.67525,3.259-6.15475,5.03375-6.52757c0.29224-0.06759-0.26626,0.78033-0.52277,1.21296
				c0.79314-1.65189,5.59403-6.01677,3.59283-5.5731c1.78619-1.62778,3.3457-3.31643,4.80296-4.94917
				c1.47926-1.6067,2.8034-3.21528,4.48869-4.22543c1.00661-2.63214,6.45351-5.14867,5.96067-6.95792
				c0.96143,1.66163,7.36765-4.3225,9.40081-6.73822c-0.48746,1.05573,2.4547-1.14184,1.94608,0.19022
				c2.70654-2.16794,5.19703-4.16523,4.17297-4.5963c6.36199-1.9385,9.98848-8.47903,14.45259-8.0168
				c8.46697-6.03406,17.08042-10.51414,25.71166-14.23584c0.12363,0.82785-2.3243,1.66384-4.57729,2.74091
				c-2.26912,1.03756-4.44624,2.04579-3.92525,2.74548c1.95569-1.03539,3.68777-2.01925,5.31747-2.96086
				c1.66753-0.86233,3.23013-1.67024,4.78923-2.47643c3.12233-1.64418,6.40254-2.88883,10.66563-4.05954
				c2.23433-0.50234-1.05547,1.02125-1.70761,1.50558c4.09909-1.75997,8.30862-2.66718,12.32297-3.79296
				c2.03406-0.46165,4.0381-0.91645,6.01599-1.36536c1.96793-0.50774,3.91254-0.99803,5.84329-1.46939
				c-0.00137,0.12949-0.82187,0.40682-1.59868,0.64283c1.53123-0.29882,3.60577-0.39669,3.3387-0.98055l-1.47588,0.41449
				c-2.62694-0.49378,5.86121-2.86367,6.10725-3.33065c-2.43439,2.01469,7.89111-0.41789,3.91466,2.19722
				c1.00658-0.23049,2.26137-0.65674,1.99017-1.02315c1.53183-0.05608,2.02882,0.11463,0.53407,0.73954
				c2.75819-0.50744,3.6432-0.79201,4.46663-1.02302c0.82272-0.24373,1.58534-0.44004,4.12572-0.58938
				c-0.00565,0.27627-1.02428,0.44623-1.52969,0.80531c2.52922-0.6971,5.10649-1.45879,9.41757-1.21126
				c-0.25798,0.16265,0.24187,0.36444-1.03975,0.3765c3.68733-0.08991,6.84085-0.5098,10.09563-0.56616
				c3.2549-0.14049,6.61839-0.19924,10.64491,0.47568c-2.48885,0.81892,2.72006,0.59468,3.04593,1.51089
				c1.45883,0.00925,2.90788,0.11563,4.35663,0.24279l-1.67714-0.66121c3.77347,0.57613,7.24551,0.34855,10.43785,1.23273
				c-0.94958-0.08627-1.90417-0.13411-2.86494-0.13736c2.3793,0.26186,4.71782,0.76786,7.08238,1.14345l-3.93001-1.08103
				c3.89023,0.33985-0.21478-1.09592,4.7654,0.13358c-1.04201-0.11413,3.79082,0.72105,5.60678,1.73243l-0.01306-0.00121
				c1.90125,0.22363,3.86766,0.46781,6.57843,1.34491c0.65215,0.4062-0.79703,0.64055-0.37354,0.90811
				c1.96233-0.06418,8.66588,2.35099,11.09541,2.58443c-0.79208-0.13521-0.9476,0.19326-0.72705,0.35069l1.633,0.09479
				c1.6257,0.74462,1.84576,0.89668,1.47803,1.06331c5.00522,1.8824-1.30664-1.36839,4.54562,1.12855
				c-0.48239-0.13627-0.28238,0.00623-1.28418-0.28334c5.89368,2.42663,11.53665,4.39522,16.71619,7.18049
				c1.30542,1.25623-4.68817-2.07164-3.1153-0.77742c7.75024,3.32667,15.85477,7.45668,22.70181,11.96047l-1.23898-0.89436
				c1.30142,0.09066,4.90445,3.64733,8.46359,5.7748c-0.83423-0.57818-1.27954-0.49699-1.0112-0.40203
				c2.22665,1.70207,4.54422,3.38357,7.1788,5.25433c2.54083,1.98616,5.42245,4.14261,8.67096,6.89204l-0.86737-0.61035
				c2.34125,2.34054,6.48212,5.82351,8.89716,8.46625c0.8324,0.66683,2.26334,2.12913,1.50427,1.13309
				c7.30493,8.23919,14.36478,15.40979,19.73761,23.63512c-0.69958-0.93828-1.72534-2.19391-1.16791-1.44841
				c1.7355,2.17351,3.21271,4.53073,4.81128,6.80431c-0.2684-0.61318-0.55057-0.94608-1.44766-2.45488
				c0.64954,0.83506,2.00467,2.76467,3.15375,4.48583c-2.17139-3.06696-0.09644,0.10215,0.66989,1.53202
				c-0.11157-0.25069,0.20789,0.20437,0.16641,0.06862c2.08951,3.83102,0.56326,0.51204,3.52423,5.67933l-0.2081-0.2436
				c1.21359,1.87129,2.14761,3.70264,3.30301,5.81013c0.38028,0.92651-1.16772-2.06539-1.31906-2.15668
				c1.59793,2.96832,3.39102,5.74167,4.55997,8.57298c-0.63803-1.28333-1.51706-3.14883-2.25494-4.3804
				c1.4928,2.97102,1.57458,3.36024,2.66467,5.57597l-0.10324-0.21992c0.7995,1.72726,1.65051,3.43112,2.41193,5.17483
				c-0.17245-0.45377-0.37732-0.89296-0.58157-1.33265c0.99701,1.86484,1.78,3.87058,2.70267,6.01309
				c0.45142,1.0756,0.92026,2.19289,1.41449,3.37067c0.44763,1.18871,0.91647,2.4335,1.42365,3.78004
				c-1.98898-5.16063-0.36981-0.83746-0.58151-1.21103c0.48059,1.37062,1.22263,3.44933,0.9877,2.86577
				c1.01205,2.49321,1.48782,4.23053,2.66171,7.83783c0.03363,0.16736,0.85565,2.74562,0.63397,2.17867
				c1.05722,3.33186-0.21921-0.79637-0.11002-0.52216c1.64059,5.13383,3.30951,12.22505,4.83746,19.82332
				c0.61578,3.28416,0.85846,5.2523,1.18005,7.14539c0.32407,1.89395,0.59821,3.73396,0.87848,6.82524
				c0.2045,2.08424-0.19482-1.70364-0.19482-1.70364c0.30203,3.3644,0.67935,5.88321,0.84964,9.0623
				c-0.03683-0.64374-0.00525,0.02002,0.04181,0.98943c0.13547,2.51952,0.09311,1.73163,0.27255,5.0704
				c-0.03378-0.59254-0.07788-1.36772-0.1452-2.54803c0.07983,1.5005,0.15936,2.99565,0.23956,4.50453
				c0.00412,1.51122,0.00827,3.03477,0.01239,4.59021c-0.00128,0.82677-0.00809-1.88087-0.01318-2.97954
				c0.00305,3.5025,0.06229,9.07747-0.08411,10.15576l0.10693-2.24475c-0.06226,1.27527-0.01331,0.65639-0.0036-0.28519
				c-0.00314-2.9566-0.00449-4.22293-0.00482-4.49982l0.00449,2.21988c-0.0011-1.30263-0.00293-3.3951-0.0051-5.87155
				c-0.0173-2.5022-0.24817-5.27208-0.33917-7.50385l0.11032,1.85944l-0.24918-4.57652
				c-0.07104-0.97157-0.08704-1.6394,0.04541,0.56313c-0.21094-3.196-0.26511-2.82303-0.50891-5.5641
				c-0.02887-0.30215-0.01389-0.16559,0.01535,0.11407l-0.32236-3.11382c0.06693,0.60977-0.03488-0.52002,0.15457,1.39375
				c-0.22968-2.80191-0.57666-5.04079-0.87057-6.84479c-0.27164-1.80164-0.47162-3.12701-0.63736-4.22696l0.07236,0.46414
				c-1.35867-7.67445-0.11859-0.74464-1.27802-6.47481l-0.69885-3.87442l-0.18884-0.74316
				c-0.18192-0.78349-0.58273-2.32341-0.49072-2.04274c-0.76599-2.89429,0.10883,0.4986-0.34665-1.17859
				c-0.47531-1.87552-1.08926-4.4744-1.72534-6.67744c-0.67596-2.19186-1.23798-4.02647-1.32227-4.45752
				c-0.45041-1.31483,1.05753,3.54857-0.18765-0.39221c-0.12637-0.57806-0.48035-1.71922-0.92899-3.13924
				c-0.50571-1.40265-1.1044-3.0634-1.70981-4.74266c0.42834,0.99976,1.53149,4.16537,0.38403,0.81584
				c-0.41-0.98711-0.9906-2.60797-1.59341-4.33501c-0.61856-1.72083-1.37933-3.5015-1.94751-4.88128
				c-0.07339-0.04543-0.70694-1.5387-1.56702-3.59708c-0.88626-2.04646-2.14621-4.59286-3.22174-6.85341
				c0.25308,0.23074-4.15564-8.46246-6.50589-12.49101l0.09351,0.10468c-0.64072-0.66911-2.94675-4.89584-4.95468-7.76588
				c0.16254,0.05824,0.57098,0.54446,1.62411,2.12315c-0.57227-0.93661-1.20023-1.83817-1.79776-2.759
				c-0.47845-0.61565-1.07193-1.45457-2.26956-3.22219l0.5791,0.60765c-0.61279-0.90811-1.22769-1.81966-1.85559-2.75021
				c-0.67496-0.89569-1.36331-1.80901-2.07465-2.75309c-1.45523-1.86353-2.84949-3.97051-4.62192-6.16561
				c-0.33548-0.13415,2.46613,3.75596-1.38782-0.78072c-0.06815-0.22855-0.08273-0.50034,0.92957,0.68653
				c-0.33105-0.38918-1.20837-1.3642-1.82654-2.18741l1.62167,1.74937c-1.56229-2.0384-0.94675-0.96065-2.22897-2.56174
				c0.13062-0.05534-0.88153-1.24263-0.61197-1.08434c0.33966,0.39959,1.08307,1.42883,1.61829,2.0064
				c-1.40506-1.82046-3.09534-4.01024-3.69528-4.78751c0.07208,0.20522-0.14609,0.12706-1.28778-1.12708
				c-2.92172-3.26913-0.86304-1.24231-2.50162-3.21307c-0.75235-0.7518-2.63007-2.83022-2.8591-2.71159
				c-0.89667-0.9183-0.98047-1.1685-1.27869-1.57106c-0.84488-0.76159-2.6601-2.69917-4.1705-4.08331
				c-1.51846-1.37611-2.61124-2.32084-1.77255-1.34464l0.41379,0.4095c-0.08255-0.07185-0.17886-0.15549-0.28006-0.24347
				c0.01337,0.01245,0,0,0.01337,0.01245l-0.01337-0.01245c-1.40945-1.21434-2.81723-2.48088-4.22052-3.77859
				c-1.44397-1.25157-2.90103-2.51441-4.35757-3.77676c-2.86096-2.58964-5.90942-4.94586-8.88275-7.13467l0.07703-0.08492
				c-1.75928-1.33034-3.83957-2.63734-5.73694-3.92806c-1.91708-1.26204-3.67786-2.47554-5.1138-3.14787
				c-1.10834-0.68205-2.49063-1.81788-1.93466-1.65826c-2.93771-1.66325-3.25876-1.85272-7.42673-4.38036
				c3.08472,1.43665-0.91602-0.76006,3.12561,1.53729c-3.77722-2.22371-4.51736-2.96866-8.84946-4.84986
				c1.61172,0.379-2.74356-1.90616-4.66739-2.73384l2.6347,1.6225c-2.12796-0.98979-3.95059-1.93223-5.80698-2.88711
				l1.23462,0.01562c-3.95773-2.17795-7.78458-3.6209-11.40039-4.77393c-3.64822-1.0859-6.94705-2.27038-10.04251-3.85657
				c-2.40189-0.31424,4.56076,1.79714,2.37158,1.61967c-3.90619-1.31696-7.74829-3.55315-8.9968-3.94428
				c-5.41093-1.82364-5.35271-0.52444-11.06618-2.13031c0.69014,0.40668,1.23657,1.19171-3.13315,0.53518
				c-4.01479-0.91969-4.77127-2.11642-2.16954-1.77141c0.97737,0.18726,1.43112,0.36847,1.37271,0.44468
				c1.32802,0.1872,3.0721,0.45249,1.52081-0.16473l-0.57835,0.13666c-0.98059-0.34418-2.87025-0.81246-4.34215-1.21291
				c-1.47621-0.37414-2.54674-0.6188-1.84482-0.73444c-3.14644-0.26571-1.39583,0.21564,0.87381,0.72345
				c-5.20526-1.18893-8.19635-1.50127-13.63333-2.29493c0.85255,0.25497,1.61375,0.67304,0.75166,0.57496
				c-7.96727-1.18266-3.56146,0.02765-8.99225-0.16518c-3.05836-0.62996,1.17047-1.01998-4.3279-0.96127
				c-3.3376-0.51507-0.68501-0.85662,0.66594-1.01344c-1.26093,0.06679-2.47437,0.0346-3.63313-0.04169
				c-1.15991-0.02617-2.26503-0.11235-3.30452-0.22143c-2.07831-0.21764-3.89709-0.52939-5.3405-0.60992l2.65692-0.21292
				c-1.59024,0.13459-2.89296,0.07708-4.21968,0.09854c0.51196,0.18753,1.02341,0.42941,1.53249,0.64558
				c-1.5601-0.16172-2.8773-0.04156-2.85841-0.33756c-1.58527,0.48729,1.25856,1.03309-1.88211,1.74881
				c-2.08064-0.22885-6.25156,0.58387-7.02843-0.17849c6.52113-0.061-0.79272-0.8999,4.72231-1.27111
				c-1.06082,0.14698-2.36143,0.17991-3.93422,0.13478c-0.24156-0.08053,0.2057-0.20929,0.62973-0.26747
				c-6.32094-0.32359-2.78506,1.24526-9.22287,1.7939c0.75633-0.60475-1.62088-0.85587-2.65465-0.56907
				c2.59705-0.34064,1.34627,0.69794-0.95647,1.43677c-4.16351,0.16563-4.4064,0.93813-6.55487,1.19771l2.47897-0.15434
				c-0.74171,0.64033-2.79253,0.85979-5.56921,1.6248c-0.32455-0.37601,2.50458-0.79224,1.46298-0.78082
				c-2.92136,1.61608-7.32703,0.2645-11.50563,2.06988c-2.10718,0.1153-0.45926-1.00064-2.30159-0.82772
				c-4.70226,1.87125-5.49677,0.63326-10.42415,2.69025c1.7153,0.33863,1.89352,0.0693-1.41685,1.88078l8.14597-3.00715
				l-4.99141,2.69536c2.50117-0.71614,5.1122-2.10953,6.67781-2.32217c-2.3885,1.2695-2.15121,1.08184-0.79172,1.32814
				c-3.73328-0.08115-6.55641,2.62722-10.67497,3.20545l-0.5423-1.95576c-3.08641,0.62348-5.65863,1.71219-8.33647,3.10033
				c-2.65282,1.46079-5.54137,2.90079-9.31819,4.35701c0.84282-0.2402,1.66055-0.53209,2.51858-0.73003
				c-0.6571,1.17595-4.46838,2.19879-6.69033,3.60744c-0.09837-0.75359-1.70058-0.30619-2.92051-0.23094
				c0.37132,0.42081-5.29421,2.70777-5.22348,4.35473c-1.21071,0.28706-2.46078,0.51733-3.65079,0.86587
				c-5.8559,2.98237-5.34218,5.55498-10.63209,8.81237c1.10384-1.73712-1.58737-0.62937,1.60432-3.43894
				c-1.76138,1.14343-3.42362,2.0607-3.14799,2.52531c-0.64378,0.14192-1.72949,1.13538-2.85918,2.20329
				c-1.1114,1.09605-2.30176,2.21576-3.30243,2.4803c-0.50792,0.79972-0.24258,1.6345-2.16695,2.96274
				c-0.30424,0.02271-0.23154-0.31749-0.23154-0.31749c0.20113,0.28422-2.56544,2.6597-0.42453,2.09074
				c-6.62559,2.00668-13.63389,11.51878-18.98515,14.00226c-3.14087,3.32614-6.57389,7.63827-9.31731,10.72728
				c-0.02184-0.37048-0.31222-0.28916,0.25919-0.83018c-4.28429,3.87138-0.40605,4.25063-5.18234,8.66872
				c-3.13283,1.74467,1.53743-3.17009-0.14606-1.87312c-2.80124-1.05261-4.54426,6.40901-8.39171,9.02013l0.46659-0.97551
				c-2.70367,2.23637-3.85302,7.31882-6.7993,11.9082c0,0-0.08032-0.36104-0.35983-0.25653
				c-0.35537,1.98272-1.36864,4.51839-2.39405,7.2484c-1.04622,2.71632-2.41211,5.45916-3.30597,7.93018
				c-0.32405-1.98083,0.49583-2.41632-0.99063-2.05228c-0.88256,2.19086,1.98118,0.24332,0.23966,4.58136
				c-1.21918,1.0898-3.2479,3.87165-4.52869,3.79623c0.55109-1.37855,1.23724-2.69615,1.84996-4.04755
				c-1.22681,0.67832-1.88192,1.97643-2.3116,3.37601c-0.40738,1.41172-0.65721,2.89282-1.24968,3.9158l-0.53985-0.55791
				c-2.53508,6.38432-0.73096,7.17509-3.40275,13.95862l0.77724-0.52788c0.37791,4.31245-2.00094,2.85312-1.93925,7.03931
				l-2.11276,0.61801c-0.08406,0.66299-0.19972,1.57571-0.33533,2.64575c-0.08704,1.07773-0.18702,2.31407-0.29224,3.61594
				c-0.19311,2.60077-0.58441,5.40015-0.862,7.74014c-0.79997-2.89699-0.02205-8.42108,0.0765-11.97784
				c-0.7132,2.53239-2.12259,8.69592-1.58113,10.21478c0.08664-1.06084-0.01648-2.45744,0.51829-3.40082
				c0.51151,3.4465,0.47245,7.70644-0.61233,12.7574c-3.44617-1.53889-3.02312,13.20161-5.93901,16.72408
				c0.05208,1.17365,0.04105,2.33647,0.01592,3.49838c0.01809,1.16534-0.00323,2.32774-0.05393,3.49318
				c-0.08508,2.33121-0.35553,4.67383-0.5375,7.07326c-0.27102,4.79747-0.74338,9.82661-0.23952,15.25066
				c2.54746-3.98901,0.24865,3.15765,3.03409,2.29927c0.31306,2.47742,0.45291,3.41815,0.26536,3.65887l-0.8697,7.73515
				c-0.57608,1.90193-0.92388-2.29961-1.48617-2.00197c0.46221,5.53467-0.87522,2.45642-1.08032,6.22305
				c0.87605-0.89178,1.7197,1.69826,1.83732,4.89526l0.58268-4.6122c1.31599,3.70461,1.00724,5.43459,0.80548,7.19069
				c-0.23674,1.7534-0.46121,3.54958,1.0575,7.22356l-1.36246-2.23866c1.24857,3.842,3.66136,14.46382,7.04186,17.4991
				c-0.09034,0.76758-0.51693,1.89401-1.23666,0.26971c2.69436,9.28888,9.50525,19.12286,11.73796,26.20779l-0.89652-0.36975
				c0.9716,1.517,2.38445,2.27576,2.9064,4.50824c-0.29012,0.02103-0.91285-0.3371-0.54978,0.40573
				c0.65419,0.73312,3.25464,3.62653,4.05756,5.8707l-1.5917-1.42166c1.86439,4.30524,4.27436,7.0658,6.48199,9.66132
				c2.37921,2.49524,4.74083,4.73337,7.1261,7.77786c-1.46028,0.98737,2.37057,7.28555,4.53804,10.25809l-0.27711,0.05685
				c1.70843,2.12073,3.35586,4.02911,5.02275,5.76022c1.72797,1.67932,3.42868,3.22168,5.12355,4.72253
				c1.66064,1.53329,3.47637,2.87375,5.25537,4.32458c1.80342,1.42679,3.56615,2.97382,5.56258,4.48938
				c3.23017,5.65549,15.4658,14.2583,23.34549,20.39392c-1.12049-1.07126,0.8735-0.83511,2.42305,0.01938
				c1.74574,1.61008,6.03079,2.51584,4.98431,3.49542l-0.70177-0.44876c0.82567,2.00192,5.11906,4.26566,8.47261,5.9722
				l1.3702-1.20245c3.67818,3.45587,9.65001,5.99759,15.12406,8.06796c2.76759,0.98004,5.36501,1.98544,7.59691,2.83051
				c2.24036,0.82489,4.05034,1.66022,5.14847,2.56467c2.33945,0.47928,5.14815,1.30164,7.49979,1.61215l-0.35466,0.71033
				c3.11198,1.02969,5.4471,1.80334,8.03282,2.39633c2.58496,0.58313,5.3145,1.41391,9.3287,1.99722l-1.73566,0.20157
				c4.51097,0.83917,6.07031-0.89026,10.18449-0.25012l1.07773,1.18506c3.93106,0.53552,7.84831,1.345,11.8192,1.69659
				c1.98013,0.20715,3.95795,0.4292,5.93735,0.50647c1.98337,0.02518,3.96204-0.01367,5.92601-0.14688
				c-0.13377,0.12619-0.37753,0.37662-1.66478,0.37076c3.724,0.33945,14.46045,0.54422,13.08031-0.54712
				c0.10852,0.84964,8.17032-0.34671,12.38123-0.97977l-0.61992,0.58072c3.52965-1.05545,3.62144-1.23257,8.58299-1.94974
				c1.18657-0.07831,1.08246,0.26154-0.50185,0.31818c3.95949-0.27847,2.9908-0.90189,7.76469-1.38995l-1.72017,0.57339
				c4.02541-0.6412,3.69481-0.66934,5.82419-1.47064c2.46674-0.70251,7.57088-1.46091,8.23782-1.26462
				c0.48059-0.36481,2.56407-1.21896,4.90622-1.72467c0.3466,0.04794-0.47618,0.35156-0.89098,0.50409
				c1.66199-0.37024,3.0977-0.74744,4.38748-1.11398c1.28098-0.3981,2.40251-0.83353,3.46956-1.21347
				c2.12662-0.78729,4.01736-1.41876,6.28308-2.01422c0.12851,0.0762,0.43314,0.02438,0.80811-0.07858
				c-5.11108,1.76205-9.29959,2.97775-8.90903,2.85464c0.09549,0.34082,4.28348-0.95737,1.10126,0.57632
				c1.63513-0.66452,3.85654-1.56708,6.1539-2.50058c2.28571-0.96512,4.64502-1.97897,6.668-2.64893
				c0.20377-0.04471,0.40256-0.08859,0.56458-0.09918l-0.40079,0.18729c0.93015-0.32138,1.74869-0.64819,2.50092-1.00146
				c1.2666-0.49384,2.07294-0.80466,3.2735-1.32004c0.54019-0.01151,4.68161-1.81467,6.62408-2.8078
				c-0.28415-0.19055,2.29715-1.39587-0.20377-0.4458c0.31711-0.13724-0.34958,0.22421-1.65671,0.84476
				c-0.29602,0.13876-0.6423,0.30133-0.84009,0.39417c0.03619-0.02386,0.07971-0.05255,0.12585-0.08264
				c-1.31082,0.56894-3.02063,1.31107-4.96332,2.15427c1.51944-0.82986,3.1174-1.6507,5.39606-2.44238
				c0.94443-0.64236,1.97385-1.34268,2.54468-1.73083c2.8602-0.88876,8.0943-3.25934,8.86234-3.52045
				c2.88141-1.66605,6.31433-3.54523,9.3194-5.54449c1.51901-0.97018,2.97452-1.89453,4.24487-2.75449
				c1.23935-0.90906,2.3121-1.72424,3.12085-2.38959c1.53461-1.09515,1.85864-1.11884,2.47607-1.46423
				c-0.87982,0.64233-1.95477,1.36462-2.41083,1.74313c3.13379-2.10468,9.06839-6.5271,9.63846-7.2627
				c3.85077-2.77899-1.96146,1.82812,3.1546-2.22195l-0.63635,0.61642c2.52786-1.97937,4.7851-3.82208,6.89377-5.63571
				c2.02167-1.9024,3.95581-3.72232,5.9227-5.57303c3.80542-3.82242,7.69867-7.78238,12.52682-13.00464
				c-0.67621,0.71649-1.01422,1.07471-1.16757,1.20801c1.40436-1.46234,2.7338-3.01138,4.02899-4.60464
				c1.3075-1.5824,2.62164-3.17313,3.94019-4.76923c2.44156-3.34412,5.08517-6.57565,7.33551-10.07968
				c4.80374-6.80151,8.85471-14.05591,12.65536-21.08093c1.94336-4.07327,2.16476-4.53717,3.36252-7.04749l0.45367-0.87418
				c0.64731-1.44122,1.22296-2.91461,1.84073-4.36862c0.65836-1.55301,1.26569-2.98605,1.8681-4.4071
				c0.56802-1.42996,1.06635-2.85696,1.61609-4.32382c0.54251-1.47571,1.10208-2.99805,1.70859-4.64777
				c0.52457-1.68112,1.08716-3.48395,1.72556-5.52954l-0.33136,1.04639c0.4379-1.46359,1.20596-3.76019,1.72198-5.6651
				c0.47226-1.83589,0.71957-2.79738,0.80884-3.14482c0.07861-0.30728,0.24857-0.97266,0.54367-2.12801l0.02533-0.08942
				c0.66507-2.41368,1.18835-4.85986,1.66098-7.3176c1.11856-5.70908-0.08255,0.90971,1.418-7.44498
				c0.4483-2.96133,0.99625-6.5804,1.16797-7.71495c-0.18549,1.22327-0.44681,2.94601-0.50226,3.31223l0.43283-2.85445
				c0.07626-0.51765,0.41061-2.71208-0.65311,4.29361l-0.74173,4.88193l-0.31915,1.55838
				c0.30597-1.35213,0.49762-2.72467,0.70428-4.09447c-0.32108,2.33638-0.63739,3.7982-0.97879,5.43619
				c-0.0936,0.45474-0.22717,1.10388-0.41708,2.02693l-0.97571,4.74821c-0.14365,0.56947,0.50189-2.11446-0.27502,1.04372
				c-0.565,2.19928,0.54886-2.10768-0.38846,1.53285c-0.59293,2.2865-0.42682,1.6459-1.11569,4.30228
				c-0.10001,0.37668,0.04559-0.19228,0.32013-1.25601c-0.55127,2.40834-1.74673,6.29048-2.14615,7.5009
				c-0.37936,1.20544-0.99634,3.16629-1.51822,4.82492c-0.56519,1.65002-1.08337,2.95889-1.04211,2.84436
				c-0.27762,0.7565-1.50439,4.09937-2.27795,6.20691c1.5509-3.83694-3.28885,7.81818-2.94049,6.7771
				c-0.54324,1.43469-1.75204,3.92319-3.10773,6.6683c-0.67712,1.37259-1.38681,2.81085-2.07758,4.21072
				c-0.74918,1.36655-1.47672,2.69373-2.13153,3.88803c0.14764-0.27289,0.43024-0.79514,0.65543-1.21161
				c-1.48859,2.6441-1.93359,3.43451-2.89502,5.14233c-0.15021,0.36591-2.64206,4.41516-3.94711,6.62247
				c-2.03122,3.14151,1.11945-1.98096,0.44351-1.01788c0.0694-0.06766-0.75629,1.33273-1.5545,2.58957
				c-0.83478,1.23325-1.59158,2.35602-1.20627,1.84811c-1.66785,2.3266-1.42041,2.01602-2.32123,3.18442
				c-0.2012,0.47119-1.4559,2.23181-2.87152,4.13486c-2.56573,3.25037-0.74857,0.771-3.47873,4.40472
				C351.87833,319.86362,354.29959,316.62836,354.29959,316.62836z M268.30569,379.42023l-0.00223-0.00632
				c0.87241-0.31659,1.61646-0.58673,2.09131-0.75897C269.95959,378.81436,269.35699,379.03513,268.30569,379.42023z
				 M259.71365,382.27744c1.05801-0.3093,2.38248-0.67752,3.76291-1.12888c0.33478-0.00177,0.06357,0.26935-0.81586,0.51642
				C263.1088,381.444,261.03992,381.99301,259.71365,382.27744z M278.56494,377.72583
				c-1.31299,0.61807-1.78281,0.75592-1.98984,0.77521c0.62399-0.28125,1.35376-0.61008,2.31232-1.04187
				c0.03662-0.02643,0.10406-0.07507,0.14209-0.10217C278.92584,377.46542,278.80258,377.57855,278.56494,377.72583z" style=""></path>
			<path fill="#5ca4a9" d="M280.79709,376.32953c0.18649-0.09427,0.29071-0.14661,0.53314-0.26886
				c-0.28033,0.10052-0.54559,0.19577-0.81464,0.29227c-0.14841,0.09875-0.29935,0.19922-0.43274,0.28812
				C280.3237,376.53583,280.57303,376.42709,280.79709,376.32953z" style=""></path>
			<path fill="#5ca4a9" d="M333.43854,60.36203l-0.13733-0.13532c0.10593,0.11773,0.20203,0.2246,0.27106,0.30135
				C333.49368,60.43043,333.48993,60.42594,333.43854,60.36203z" style=""></path>
			<polygon fill="#5ca4a9" points="137.89398,376.76334 137.83545,376.96014 138.62494,377.07278 			" style=""></polygon>
			<path fill="#5ca4a9" d="M364.75699,99.33751c0.03934,0.0878,0.12637,0.25527,0.31137,0.57996
				C365.04474,99.87357,364.91818,99.6378,364.75699,99.33751z" style=""></path>
			<path fill="#5ca4a9" d="M375.19318,118.26385l1.29846,2.76965C375.92868,119.83257,375.51996,118.96077,375.19318,118.26385z" style=""></path>
			<path fill="#5ca4a9" d="M381.7403,133.54366c0.07764,0.16457,0.10803,0.2287,0.13928,0.29524
				c-0.00433-0.01231-0.01077-0.03079-0.01077-0.03079L381.7403,133.54366z" style=""></path>
			<path fill="#5ca4a9" d="M170.75456,15.21513c-0.21605,0.04057-0.42821,0.08794-0.61577,0.14186
				C168.71304,15.78841,169.68721,15.528,170.75456,15.21513z" style=""></path>
			<path fill="#5ca4a9" d="M248.15437,15.61475c-0.83189-0.10074-1.65085-0.19827-2.507-0.34356
				C246.9893,15.6524,248.0367,15.92444,248.15437,15.61475z" style=""></path>
			<path fill="#5ca4a9" d="M93.27609,50.57491c0,0-0.00563-0.00775-0.00452-0.0211c-0.14558,0.11047-0.27415,0.20785-0.4199,0.31844
				L93.27609,50.57491z" style=""></path>
			<path fill="#5ca4a9" d="M242.0771,14.5581c1.34267,0.38676,2.49055,0.58143,3.57027,0.71309
				C244.53525,15.01024,243.22636,14.69162,242.0771,14.5581z" style=""></path>
			<path fill="#5ca4a9" d="M394.02609,204.16745l0.0014,0.80183c-0.00113,0.03044-0.00192,0.05045-0.00369,0.09544
				L394.02609,204.16745z" style=""></path>
			<path fill="#5ca4a9" d="M394.0238,205.06473l-0.043,0.88972C394.00049,205.54842,394.01675,205.20944,394.0238,205.06473z" style=""></path>
			<path fill="#5ca4a9" d="M393.89035,207.82666l0.09045-1.87221C393.94977,206.59669,393.91254,207.36667,393.89035,207.82666z" style=""></path>
			<path fill="#5ca4a9" d="M393.13022,182.16357l-0.03119-0.25061C393.11218,182.0183,393.11996,182.08073,393.13022,182.16357z" style=""></path>
			<path fill="#5ca4a9" d="M392.39624,175.50887c0.24319,1.57823,0.42471,3.98393,0.67722,6.19771l0.02557,0.20639
				C392.96448,180.87425,392.64331,177.00632,392.39624,175.50887z" style=""></path>
			<path fill="#5ca4a9" d="M386.86014,148.13112c0.51114,1.79964,0.927,3.6259,1.39636,5.43692
				c-0.22681-0.95485-0.52155-2.21175,0.10791,0.26286C386.66406,146.95973,388.71606,155.24803,386.86014,148.13112z" style=""></path>
			<path fill="#5ca4a9" d="M381.40103,131.60141c1.03107,2.8362,0.02463-0.0473,0.09348,0.09706
				C380.79187,129.91794,380.59882,129.49646,381.40103,131.60141z" style=""></path>
			<path fill="#5ca4a9" d="M302.39389,36.23449l0.4371-0.13119C300.82343,34.90308,302.74298,36.20593,302.39389,36.23449z" style=""></path>
			<path fill="#5ca4a9" d="M280.23059,26.81399c0.6572,0.3662,1.31857,0.72073,1.95343,1.13179l1.12415,0.11873
				C282.29459,27.61854,281.27808,27.18124,280.23059,26.81399z" style=""></path>
			<polygon fill="#5ca4a9" points="268.19727,18.58875 269.17798,18.89432 265.46094,17.65115 			" style=""></polygon>
			<path fill="#5ca4a9" d="M68.08009,58.39439l1.42939,0.4735C70.54504,57.64096,69.78249,56.31223,68.08009,58.39439z" style=""></path>
			<path fill="#5ca4a9" d="M18.8174,136.28287c-1.07773,0.69064-2.30592,3.05724-2.10054,4.81737
				C17.43217,139.13025,18.59318,137.32796,18.8174,136.28287z" style=""></path>
			<path fill="#5ca4a9" d="M112.67738,374.02374l-1.81345-0.57642c1.08945,0.46027,2.15849,0.95502,3.27808,1.34814
				C113.65259,374.54056,113.15125,374.30856,112.67738,374.02374z" style=""></path>
		</g>
		<g>
			<path fill="#5ca4a9" d="M381.42792,223.11354c-0.07672,0.58981-0.01929,0.25804,0.13782-1.37604l0.11594-1.16023
				L381.42792,223.11354z" style=""></path>
			<path fill="#5ca4a9" d="M382.44098,212.11444c0.09482-1.92851,0.20139-4.15335,0.13824-2.90388
				c-0.09494,1.96381-0.11038,2.28365-0.21411,4.42886c-0.14502,1.51656-0.21149,2.21292-0.24649,2.57867
				c-0.06055,0.60393-0.2431,2.42776-0.34244,3.41951c0.17075-2.13016,0.5798-4.81516,0.6698-7.64372
				C382.4761,211.38757,382.44757,211.97542,382.44098,212.11444z" style=""></path>
			<path fill="#5ca4a9" d="M324.91556,67.71651l0.73505,0.73196C325.44785,68.24662,325.19727,67.99709,324.91556,67.71651z" style=""></path>
			<path fill="#5ca4a9" d="M237.25018,22.3941c0.74957,0.14221,1.07555,0.1386,1.12604,0.08307
				C237.67348,22.37475,237.0957,22.29697,237.25018,22.3941z" style=""></path>
			<path fill="#5ca4a9" d="M220.42299,18.92045c0.3653,0.06151,0.67197,0.11305,1.00238,0.16873
				C221.04865,18.97253,220.66563,18.88754,220.42299,18.92045z" style=""></path>
			<path fill="#5ca4a9" d="M324.91556,67.71651l-1.88516-1.88723C322.82455,65.77982,323.97931,66.8162,324.91556,67.71651z" style=""></path>
			<path fill="#5ca4a9" d="M382.47656,189.9944c0.03049,0.55148,0.05594,1.01187,0.07959,1.44073
				c-0.02466-0.45642-0.04861-0.89781-0.07321-1.3535C382.4809,190.05353,382.47916,190.02962,382.47656,189.9944z" style=""></path>
			<path fill="#5ca4a9" d="M353.28824,101.12701l0.44562,0.6757c0.14612,0.17937,0.28769,0.35284,0.42749,0.52423
				L353.28824,101.12701z" style=""></path>
			<path fill="#5ca4a9" d="M369.01587,130.87814c-0.28778-0.70564-0.46338-0.91887-0.60837-1.17448
				c0.19601,0.38394,0.42636,0.89799,0.68781,1.51274C369.11401,131.22191,369.09216,131.12296,369.01587,130.87814z" style=""></path>
			<path fill="#5ca4a9" d="M381.92435,182.47534l0.0972,0.94199C381.99634,183.17177,381.9538,182.76048,381.92435,182.47534z" style=""></path>
			<path fill="#5ca4a9" d="M338.84601,81.7964c-0.01465-0.06258-0.07437-0.17104-0.14822-0.27899
				C338.67841,81.5345,338.74002,81.64148,338.84601,81.7964z" style=""></path>
			<path fill="#5ca4a9" d="M372.35388,260.9653c-0.00842,0.02579,0.0032-0.00146,0.0032-0.00146
				C372.42377,260.77982,372.44385,260.72305,372.35388,260.9653z" style=""></path>
			<polygon fill="#5ca4a9" points="381.42792,223.11354 381.34683,223.64795 381.32925,223.76363 			" style=""></polygon>
			<path fill="#5ca4a9" d="M188.86046,17.04419c0.0623,0.00469,0.08365,0.00623,0.14197,0.01056
				C189.83115,16.93568,189.35931,16.96758,188.86046,17.04419z" style=""></path>
			<path fill="#5ca4a9" d="M17.85564,216.89693c0.81528-3.38524,2.03726,5.21178,2.80975,0.1561
				C20.20889,217.5732,18.1808,212.71967,17.85564,216.89693z" style=""></path>
			<path fill="#5ca4a9" d="M382.43137,189.12401c-0.02426-0.45378-0.04892-0.91464-0.07358-1.37694
				C382.39136,188.37447,382.41382,188.79601,382.43137,189.12401z" style=""></path>
			<path fill="#5ca4a9" d="M20.66539,217.05302l0.01002-0.00089l0.06934-0.51752
				C20.71182,216.7493,20.69328,216.87032,20.66539,217.05302z" style=""></path>
			<path fill="#5ca4a9" d="M118.63203,36.21301c0.21712,0.09454,0.53983,0.08377,0.87,0.0616
				C119.43129,36.19103,119.22318,36.15262,118.63203,36.21301z" style=""></path>
			<path fill="#5ca4a9" d="M170.60094,20.76213l-1.33522,0.13799C169.80148,20.87813,170.22881,20.82224,170.60094,20.76213z" style=""></path>
			<path fill="#5ca4a9" d="M95.20778,52.06983c-0.64083,0.36026-0.93425,0.38132-1.65159,1.09034
				c0.10895-0.00882,0.20672-0.0304,0.32664-0.06828C94.08335,52.75616,94.43002,52.41486,95.20778,52.06983z" style=""></path>
			<path fill="#5ca4a9" d="M72.77796,70.95782c0.17572-0.04421,0.37096-0.13966,0.5567-0.20875
				c0.19394-0.21738,0.42046-0.47115,0.62023-0.69497L72.77796,70.95782z" style=""></path>
			<path fill="#5ca4a9" d="M324.08856,332.85043c0.49945-0.38681,0.8226-0.61435,1.08066-0.78574
				C324.7691,332.28439,327.91428,329.46796,324.08856,332.85043z" style=""></path>
			<path fill="#5ca4a9" d="M382.48117,189.97932c-0.01288-0.22044-0.02567-0.44147-0.0498-0.85532
				c0.01782,0.33049,0.03488,0.64767,0.05157,0.95763C382.4888,190.16508,382.49109,190.18346,382.48117,189.97932z" style=""></path>
			<path fill="#5ca4a9" d="M99.49343,59.92736l-3.63692,2.54932C96.91368,61.81476,98.23179,60.88574,99.49343,59.92736z" style=""></path>
			<path fill="#5ca4a9" d="M132.98711,363.00909l0.9821,0.32526C133.61349,363.15573,133.26999,363.02948,132.98711,363.00909z" style=""></path>
			<path fill="#5ca4a9" d="M85.9937,71.19955c-0.85838,0.22919-1.64143,0.6208-2.38997,1.09299
				c-0.07277,0.19244-0.17736,0.38905-0.1744,0.57077L85.9937,71.19955z" style=""></path>
			<path fill="#5ca4a9" d="M325.17767,332.0593l-0.00845,0.0054L325.17767,332.0593z" style=""></path>
			<path fill="#5ca4a9" d="M345.37976,309.80273c-2.65756,3.44818-1.16257,1.68695-1.67535,2.4592
				c-3.32416,3.99948-1.61865,1.78543-2.80975,3.09573c-1.01965,1.24875-1.92896,2.36237-2.77438,3.39771
				c-0.86755,1.00787-1.6933,1.91632-2.5174,2.80258c-0.14041,0.1163-0.46799,0.45413-0.11307,0.03143
				c-2.18082,2.66119-7.10071,7.29251-9.89032,10.15674c-0.23358,0.18552-0.35623,0.27362-0.42181,0.31317
				c0.54715-0.36215,0.68402-0.3623,0.62979-0.22595c-1.45734,1.30145-2.62589,2.50461-3.25858,2.90063
				c0.89639-0.79459,0.93704-0.89832,1.32999-1.29926l-1.49277,1.4014c-1.49835,1.0878,2.04593-1.90366,1.95856-1.99893
				c-1.46371,1.35104-3.05365,2.81833-4.55505,4.20398c-1.55042,1.33023-3.04211,2.55228-4.24741,3.49307
				c-0.62549,0.24185,5.52637-4.53198,2.237-2.11078c1.2623-0.9465,2.47205-1.95581,3.65506-2.99774
				c-2.89667,2.17358,2.16595-1.88309-0.52454,0.07968c-2.31888,2.06671-3.75528,3.05707-5.06891,4.18997
				c-1.35925,1.07675-2.6329,2.26279-5.19406,4.01053c-1.05685,0.91599,0.48318-0.12552-0.57278,0.7937
				c-3.48276,2.70816-4.99289,3.58069-6.30014,4.22162c-1.28915,0.66931-2.33237,1.16928-4.94861,3.07724
				c-1.32999,1.02441-1.72174,1.63602-5.78745,3.82538l1.18954-1.0759c-5.19641,3.00427-2.73709,2.12793-8.40283,4.88855
				c0.92456-0.64529,4.12952-2.29242,3.30389-1.9082c-3.74567,1.63876-2.46075,1.50925-5.23642,2.97064
				c-0.24042,0.00491-0.48245,0.00574-0.73016-0.00565c-5.75549,2.76096-12.0802,5.88345-18.75363,8.27237
				c0.32767-0.24533,1.42706-0.76135-0.17807-0.33514c-4.14413,1.6489-8.73264,2.93628-13.27814,4.17279
				c-4.60306,1.03571-9.1664,2.02271-13.42654,2.5531l-3.13176,1.05325c-0.74995,0.13675-1.43596-0.00735-0.63309-0.19946
				c-3.33904,0.27045-0.12032,0.31796-1.68134,0.71988c-1.88139,0.29721-2.53268,0.07016-1.36192-0.23499
				c-5.73209,1.42108-16.63312,2.67368-22.86314,2.21997l1.20345-0.21347c-4.82336-0.16571-5.44585,1.16736-9.93941,0.60953
				l0.86304-0.09866c-10.47742-0.54346-22.11232-1.4584-29.75604-4.07339c-0.83487,0.34918-3.34967-0.31442-5.75937-0.90964
				c-2.42424-0.53903-4.68044-1.29843-5.20338-0.60071c-5.58269-2.30344-3.89-2.0383-11.66399-5.20386
				c-2.10075-0.74069-3.4628-0.14572-6.1286-0.95126l0.24127-0.85556l-3.84242-0.46863
				c-0.49916-0.55939-0.97227-1.17294-1.44348-1.77994l-2.45602-0.83511c0.92101,0.46951,1.85037,1.26944,1.60831,1.44833
				c-1.9384-0.6275-4.14969-1.76978-5.84338-2.81934c-1.67369-1.09787-2.80781-2.15216-2.75112-2.38568
				c-2.96051-1.18121-5.93194-2.36584-8.81728-3.74606c0.37625-0.24554,1.83405,0.42307,3.04728,0.82742
				c-4.90533-1.63348-0.30627-1.37625-4.79973-2.8688c0.43208,0.50726-0.58613,0.35236-0.7797,0.47672
				c-0.88416-0.80774-2.41527-1.96375-4.16331-3.13815c-1.73669-1.19165-3.76244-2.29193-5.4214-3.33566l1.00783-0.16974
				c-5.66756-4.18365-12.29251-8.36658-18.18826-13.67197c1.91704,2.12427,0.57906,2.72989-1.29777,1.30905l0.06816-1.51044
				c-1.63346-0.41965,1.56612,1.92474-1.38992,0.59848c-2.1172-2.11975-0.55775-2.38144,0.93094-1.50888l-2.90022-2.15836
				c0.09011-0.41226,0.83206,0.02652,1.29847-0.16415c-1.57828-0.47705-3.67878-5.09988-6.00898-5.73578l0.11988-0.40692
				c-1.3599-1.42319-2.5533-2.63159-3.65001-3.71609c-1.05946-1.1203-2.01094-2.12662-2.93127-3.09976
				c-1.85872-1.93185-3.60328-3.728-5.58871-6.25446c-0.94501,0.61041-2.32031-1.51602-4.24836-2.46054
				c-1.25801-2.03955-2.47748-4.26096-3.80393-6.53586c-1.29977-2.29526-2.57151-4.73773-4.18932-7.08322
				c-2.61835-3.08649-1.4579-0.46259-2.99229-1.64041c0.75461-0.8248-2.22079-5.68591-0.05473-3.53226
				c-1.84977-2.87857-2.87812-4.80466-4.12726-6.8714c-0.64324-1.02536-1.31673-2.09894-2.11843-3.37674
				c-0.77003-1.30011-1.66313-2.80768-2.77304-4.68127c-0.01073,1.04642,0.26593,2.09799-0.31007,1.76099
				c-0.84188-1.36014-1.11443-3.4614-0.52884-3.4754l0.28183,0.3287c-2.74562-4.11453-4.16886-9.68002-5.17369-14.99127
				c-0.60079-2.62808-0.94402-5.2536-1.54829-7.59409c-0.29542-1.17284-0.63558-2.28224-1.04481-3.3096
				c-0.35577-1.04247-0.78284-2.00229-1.30773-2.86142l0.2198,0.38908c-1.01199-2.48703-2.20041-4.95262-3.07244-7.51004
				c-0.52471-3.6667,1.2862,1.98569,1.45989-0.84282c-0.89278-2.00951-1.49622-3.86514-1.93251-5.6114
				c-0.35029-1.76215-0.53658-3.41505-0.69869-5.01939c-0.39175-3.20482-0.40258-6.23619-1.40718-9.71692
				c0.703-1.44917,0.97116-3.37108,1.07623-5.57254c0.10641-2.19958-0.19909-4.66974-0.27964-7.21478
				c-0.09804-2.54295-0.27038-5.15384-0.21858-7.58675c0.14308-2.4303,0.44341-4.68185,1.09699-6.48428l-0.84962,0.37402
				c-0.71302-1.96376,0.56848-2.28053,0.91639-3.65681c-0.66208,0.14365-0.95404,2.00482-1.28283,0.78687
				c0.2296-8.13208,1.642-16.47792,3.99068-24.5759c2.42285-8.08031,5.32425-16.01894,8.67258-23.55122
				c2.29123-5.54373-2.65595-4.78786,2.07401-11.13902l0.54036,2.62335c3.23446-12.03046,11.18204-22.36405,16.98473-32.93617
				c-0.15413,0.77693,0.1701,1.03458-0.48046,2.01033c2.29876-1.46216,5.60215-7.50189,4.96212-8.09209
				c1.27101-1.38969,0.88171,0.1465,1.95203-0.47054c2.09001-1.55019,2.99754-5.83674,4.71182-6.14668
				c0.28214-0.05694-0.23448,0.74686-0.4716,1.15666c0.7217-1.57259,5.25723-5.65011,3.32552-5.28168
				c1.68992-1.51901,3.14874-3.11163,4.51265-4.65174c1.3845-1.51554,2.6243-3.0325,4.22141-3.96731
				c0.8935-2.53209,6.08556-4.81406,5.55196-6.59715c0.97672,1.64734,6.97638-3.99643,8.85651-6.3098
				c-0.43809,1.0193,2.32616-1.04704,1.87563,0.24223c2.53999-2.0403,4.86768-3.93518,3.87463-4.3856
				c6.04427-1.71876,9.33332-8.06314,13.60845-7.49361c7.92538-5.72635,16.00806-9.97676,24.11549-13.50223
				c0.1322,0.82247-2.1676,1.61221-4.28395,2.62938c-2.13133,0.97982-4.17584,1.93266-3.66606,2.63697
				c1.83321-0.98405,3.4557-1.92212,4.98233-2.82056c1.56276-0.82397,3.0271-1.59601,4.48804-2.36633
				c2.92746-1.56878,6.00783-2.75432,10.01909-3.8476c2.10391-0.46219-0.98137,0.99841-1.58945,1.4692
				c3.847-1.67598,7.80513-2.52985,11.57875-3.59118c3.84114-0.77886,7.51729-1.79589,11.145-2.6974
				c0.00008,0.12938-0.77008,0.39912-1.49931,0.62792c1.43916-0.28485,3.39175-0.36419,3.13509-0.94962l-1.38615,0.40094
				c-2.48004-0.51664,5.49586-2.8073,5.72513-3.27338c-2.27715,1.99874,7.42711-0.3705,3.70024,2.21918
				c0.94579-0.22436,2.12405-0.64272,1.86684-1.01054c1.44135-0.0468,1.90955,0.12675,0.50658,0.74225
				c2.59247-0.48897,3.42378-0.77125,4.19742-1.00035c0.77303-0.24124,1.48982-0.43513,3.87929-0.57662
				c-0.00447,0.27613-0.9624,0.44296-1.43661,0.80051c2.37654-0.6899,4.80046-1.43903,8.85625-1.19493
				c-0.2426,0.16257,0.22749,0.3645-0.978,0.37638c3.46817-0.08951,6.43483-0.50666,9.49776-0.57655
				c3.06285-0.14916,6.22908-0.2161,10.01662,0.43073c-2.34761,0.83297,2.5573,0.5782,2.85777,1.49193
				c1.37285,0.0023,2.73662,0.09607,4.10019,0.20963l-1.57443-0.64554c3.54984,0.54022,6.82272,0.28871,9.8241,1.1352
				c-0.89484-0.0742-1.79424-0.11208-2.69939-0.10775c2.23924,0.24178,4.44006,0.7135,6.66568,1.06254l-3.6944-1.03298
				c3.66554,0.29403-0.1907-1.09102,4.49393,0.07829c-0.98184-0.10268,3.56798,0.67891,5.27078,1.65609l-0.01236-0.00098
				c1.7926,0.19573,3.64748,0.41122,6.19595,1.24649c0.60999,0.39544-0.76311,0.64941-0.367,0.9098
				c1.85648-0.0959,8.15761,2.19782,10.45604,2.38258c-0.74832-0.11908-0.90149,0.21012-0.69553,0.36228l1.54587,0.06285
				c1.52728,0.70853,1.73297,0.85519,1.38129,1.02772c4.70877,1.77356-1.21265-1.33387,4.28799,1.03393
				c-0.45477-0.12619-0.26794,0.01149-1.21225-0.25705c5.54294,2.29085,10.86456,4.11789,15.73495,6.7482
				c1.2135,1.21164-4.41632-1.93991-2.94846-0.69653c7.29706,3.11797,14.9415,6.9748,21.38318,11.21748l-1.16461-0.84393
				c1.24677,0.05233,4.60599,3.4472,7.96674,5.43295c-0.78699-0.54179-1.21628-0.45082-0.96149-0.36489
				c2.09439,1.60314,4.2775,3.18242,6.76041,4.93858c2.39453,1.86493,5.11108,3.88902,8.1723,6.47228l-0.82169-0.56841
				c2.19968,2.20712,6.10019,5.48119,8.37167,7.96989c0.78845,0.62238,2.13483,1.99908,1.42722,1.05505
				c6.85205,7.77508,13.5365,14.49019,18.57608,22.24652c-0.65872-0.88289-1.62793-2.06203-1.103-1.36055
				c1.63535,2.0443,3.02747,4.26173,4.53372,6.40062c-0.24673-0.58102-0.51489-0.89278-1.35474-2.31596
				c0.61511,0.78363,1.8934,2.59817,2.97495,4.21821c-2.04776-2.88439-0.09988,0.10215,0.61868,1.44961
				c-0.10339-0.23701,0.19934,0.19009,0.16187,0.06116c1.95779,3.61153,0.54123,0.47523,3.32239,5.3429l-0.19879-0.22764
				c1.14401,1.76029,2.02673,3.48238,3.11353,5.46664c0.35263,0.87478-1.1019-1.94281-1.24893-2.02608
				c1.50513,2.79323,3.20242,5.39901,4.29779,8.06655c-0.60193-1.20728-1.42944-2.96319-2.1257-4.1216
				c1.39954,2.79945,1.4783,3.16476,2.50388,5.25073l-0.09708-0.20722c0.75195,1.62592,1.55267,3.22984,2.26907,4.87138
				c-0.16202-0.42719-0.35461-0.84085-0.54642-1.25484c0.94467,1.75256,1.68219,3.6403,2.55096,5.65684
				c0.42502,1.01256,0.86639,2.06392,1.33185,3.17259c0.42197,1.11784,0.86386,2.28831,1.3429,3.55722
				c-1.87839-4.85535-0.35147-0.78703-0.55478-1.1373c0.45148,1.29057,1.14929,3.24739,0.92706,2.69847
				c0.95599,2.34558,1.39948,3.98233,2.50891,7.37619c0.03067,0.15779,0.80591,2.58427,0.59473,2.05139
				c0.9968,3.13556-0.20493-0.75008-0.10068-0.49242c1.5477,4.83151,3.11429,11.50735,4.55667,18.65849
				c0.58066,3.09135,0.80988,4.94379,1.11316,6.72572c0.30563,1.78265,0.56424,3.51459,0.82831,6.42435
				c0.19202,1.96205-0.1846-1.60344-0.1846-1.60344c0.28397,3.16685,0.63956,5.5379,0.80017,8.53027
				c-0.03497-0.6059-0.0054,0.01898,0.03879,0.93146c0.12756,2.36789,0.08801,1.63292,0.2572,4.77267
				c-0.03207-0.5593-0.07413-1.29259-0.13751-2.3983c0.07535,1.41206,0.15036,2.81963,0.22623,4.24008
				c0.00391,1.42273,0.00778,2.85709,0.01199,4.32079c-0.00137,0.77823-0.00806-1.7706-0.01309-2.80464
				c0.00336,3.29694,0.05933,8.54466-0.07828,9.5596l0.10068-2.11287c-0.05856,1.20035-0.01276,0.61784-0.00366-0.26854
				c-0.00293-2.77837-0.00421-3.96542-0.00449-4.23557l0.00436,2.08948c-0.00101-1.24403-0.00281-3.19878-0.00485-5.52689
				c-0.01627-2.35533-0.23386-4.96272-0.31967-7.06346l0.10468,1.75032l-0.23544-4.30801
				c-0.06662-0.91458-0.08109-1.54317,0.04379,0.53004c-0.19794-3.00841-0.24991-2.65727-0.47879-5.23766
				c-0.02692-0.28439-0.01282-0.15584,0.01474,0.10753l-0.30371-2.93112c0.06326,0.57399-0.0318-0.48976,0.14624,1.31186
				c-0.21567-2.63745-0.54227-4.7451-0.81921-6.44316c-0.25546-1.69536-0.44254-2.93726-0.59955-3.97896l0.06821,0.43678
				c-1.2793-7.22408-0.11307-0.70074-1.20663-6.09407l-0.65268-3.64821l-0.1799-0.69911
				c-0.17102-0.73746-0.54822-2.18697-0.46069-1.92308c-0.72238-2.72409,0.10141,0.46953-0.32874-1.10883
				c-0.44632-1.76578-1.02435-4.21208-1.62299-6.28593c-0.63647-2.06311-1.16522-3.79015-1.24182-4.19667
				c-0.42648-1.23701,0.99335,3.3409-0.18036-0.36818c-0.11606-0.54489-0.44943-1.61928-0.87228-2.95563
				c-0.47614-1.32053-1.03894-2.88185-1.60941-4.46452c0.40643,0.93999,1.44254,3.9207,0.36581,0.76645
				c-0.38852-0.92827-0.93469-2.45418-1.50085-4.08038c-0.58121-1.62036-1.29517-3.29735-1.83047-4.59618
				c-0.07187-0.0415-0.66864-1.44714-1.47815-3.38472c-0.83417-1.92647-2.01941-4.32403-3.03271-6.45154
				c0.24042,0.21622-3.90695-7.96865-6.11533-11.76351l0.0892,0.09782c-0.61105-0.62531-2.77957-4.60556-4.67126-7.30632
				c0.15857,0.05112,0.54504,0.50758,1.53833,1.9926c-0.53836-0.88195-1.1293-1.73088-1.69153-2.59802
				c-0.45322-0.57772-1.0134-1.36649-2.14142-3.03015l0.55219,0.56735c-1.11011-1.7421-2.33987-3.41771-3.70221-5.1795
				c-1.371-1.7537-2.68381-3.73671-4.34915-5.80618c-0.32364-0.11973,2.30008,3.55241-1.3331-0.71352
				c-0.05991-0.21862-0.06631-0.48032,0.88815,0.63566c-0.31216-0.36583-1.14081-1.28146-1.72092-2.05781l1.5336,1.64122
				c-1.46729-1.92176-0.89713-0.8997-2.10321-2.40749c0.12897-0.05727-0.82547-1.17368-0.56671-1.02882
				c0.32025,0.37576,1.01678,1.34754,1.52286,1.88956c-1.31729-1.71578-2.90109-3.77828-3.46793-4.51663
				c0.06415,0.19646-0.14609,0.12706-1.22141-1.05311c-2.75006-3.07809-0.80423-1.1769-2.3428-3.03628
				c-0.71262-0.70372-2.47485-2.66608-2.70065-2.5446c-0.84384-0.86469-0.91782-1.10505-1.19565-1.48695
				c-0.79749-0.71513-2.50601-2.53976-3.92877-3.84222c-1.43033-1.29508-2.46066-2.18255-1.67719-1.2571l0.3887,0.38652
				c-0.07794-0.06754-0.16855-0.14615-0.26413-0.22882c0.01263,0.01163,0,0,0.01263,0.01163l-0.01263-0.01163
				c-1.32928-1.14064-2.65533-2.33199-3.9761-3.55398c-1.35846-1.17921-2.72906-2.36927-4.09943-3.55888
				c-2.6904-2.44137-5.5564-4.66505-8.35751-6.7232l0.07651-0.08528c-1.65826-1.24998-3.61713-2.4801-5.40424-3.69419
				c-1.80563-1.18699-3.46494-2.32726-4.8208-2.9536c-1.04327-0.64227-2.33707-1.72387-1.80896-1.58113
				c-2.76822-1.56235-3.07504-1.73251-6.99188-4.12544c2.91077,1.34137-0.85596-0.72723,2.94751,1.43948
				c-3.55212-2.10117-4.24268-2.8159-8.33148-4.56839c1.52725,0.33807-2.5701-1.822-4.38431-2.59653l2.47311,1.54415
				c-2.0047-0.9299-3.7196-1.82015-5.46637-2.72202l1.17532-0.01295c-3.71823-2.07169-7.32831-3.41957-10.73773-4.49434
				c-3.44012-1.01217-6.54935-2.11734-9.4527-3.6489c-2.26935-0.273,4.28888,1.71235,2.21808,1.5719
				c-3.67581-1.24559-7.2782-3.40593-8.4541-3.776c-5.0903-1.74378-5.0553-0.44262-10.43156-1.97257
				c0.64674,0.39777,1.1523,1.17449-2.96417,0.56967c-3.7782-0.87152-4.48051-2.05712-2.02815-1.74255
				c0.92067,0.17567,1.34698,0.35126,1.29108,0.42808c1.2516,0.17154,2.89529,0.41644,1.43781-0.18164l-0.54768,0.14282
				c-0.92194-0.3322-2.701-0.77794-4.0864-1.16074c-1.38951-0.35791-2.39677-0.59518-1.73355-0.71598
				c-2.96609-0.2384-1.31877,0.22736,0.81734,0.71476c-4.8987-1.14573-7.71927-1.41994-12.83836-2.18721
				c0.80206,0.2499,1.51675,0.66341,0.70499,0.57038c-7.50201-1.13943-3.35735,0.05564-8.47174-0.1206
				c-2.87872-0.62098,1.10596-1.02308-4.0739-0.94867c-3.14311-0.50537-0.6438-0.85444,0.62982-1.01512
				c-1.18842,0.07018-2.33154,0.04181-3.42332-0.03164c-1.093-0.02622-2.13406-0.11252-3.11349-0.22179
				c-1.95813-0.21772-3.67236-0.52951-5.03291-0.6101l2.50385-0.21281c-1.49869,0.13391-2.72639,0.07824-3.97682,0.09696
				c0.48282,0.18974,0.9651,0.43054,1.44514,0.64707c-1.47026-0.16031-2.71161-0.04841-2.69434-0.34289
				c-1.49292,0.48256,1.18774,1.03666-1.76938,1.74291c-1.96109-0.23633-5.88715,0.56802-6.62309-0.2024
				c6.14534-0.03567-0.75114-0.90041,4.44574-1.25381c-0.99951,0.14365-2.22504,0.17325-3.70796,0.12263
				c-0.2282-0.08186,0.19301-0.20773,0.59251-0.26511c-5.96217-0.35724-2.62021,1.22926-8.68633,1.74071
				c0.70911-0.59921-1.53476-0.86469-2.50854-0.58901c2.44817-0.31804,1.27496,0.70878-0.89116,1.42676
				c-3.92665,0.12955-4.14903,0.8989-6.17349,1.13948l2.33752-0.13267c-0.69362,0.63361-2.62605,0.83553-5.23944,1.56481
				c-0.31068-0.37885,2.35602-0.76184,1.37279-0.76232c-2.74034,1.57655-6.91489,0.18775-10.84439,1.92369
				c-1.99115,0.08554-0.44798-1.00352-2.18854-0.85656c-4.42072,1.80203-5.19482,0.54794-9.83049,2.5176
				c1.6315,0.36441,1.79494,0.09968-1.31049,1.84794l7.66759-2.85947l-4.68439,2.60049
				c2.35646-0.6729,4.8085-2.01252,6.2858-2.20455c-2.24045,1.23056-2.01953,1.043-0.72882,1.31208
				c-3.53636-0.14423-6.16315,2.51119-10.05653,3.00936l-0.54907-1.95331c-2.918,0.56098-5.33858,1.59943-7.85605,2.92275
				c-2.49422,1.39174-5.20778,2.76705-8.77384,4.12317c0.79742-0.2195,1.57108-0.4875,2.38258-0.66718
				c-0.59928,1.15236-4.20792,2.0758-6.29326,3.42009c-0.11102-0.74772-1.62791-0.34055-2.78987-0.29346
				c0.36439,0.42453-4.99328,2.54608-4.88528,4.17304c-1.15004,0.25349-2.33743,0.45346-3.46864,0.76489
				c-5.53358,2.78762-4.97059,5.33843-9.96101,8.39202c1.01305-1.67647-1.5413-0.66004,1.44877-3.3349
				c-1.66087,1.07625-3.23267,1.93326-2.95546,2.39663c-0.61471,0.12204-1.62982,1.07026-2.68674,2.08701
				c-1.03999,1.04316-2.15482,2.10704-3.11084,2.33859c-0.46692,0.76942-0.18815,1.5944-2.00326,2.84192
				c-0.29237,0.01387-0.23201-0.31726-0.23201-0.31726c0.20306,0.28604-2.39794,2.52916-0.34965,2.03427
				c-6.3337,1.77551-12.83297,10.85302-17.96326,13.09826c-2.94903,3.14483-6.17264,7.21697-8.75506,10.12897
				c-0.03179-0.35867-0.31287-0.28853,0.22961-0.79485c-4.07321,3.6171-0.27442,4.09591-4.81274,8.22289
				c-3.0152,1.59277,1.41413-3.01302-0.19586-1.81062c-2.76897-1.09335-4.26486,6.05119-7.96889,8.45379l0.43208-0.92487
				c-2.596,2.07575-3.58153,6.93259-6.36782,11.24919c0,0-0.0883-0.34783-0.36089-0.25494
				c-0.29868,1.89064-1.22868,4.29408-2.17654,6.87576c-0.96735,2.56888-2.2421,5.15807-3.07313,7.49055
				c-0.36535-1.89571,0.43568-2.29209-1.0256-1.97987c-0.82316,2.06812,1.9636,0.27915,0.34092,4.37241
				c-1.18153,1.00983-3.12185,3.61643-4.39557,3.51562c0.51846-1.29952,1.16394-2.54169,1.74049-3.81566
				c-1.1988,0.61896-1.81589,1.84316-2.21156,3.16647c-0.37474,1.33499-0.59171,2.73867-1.15768,3.69951l-0.5466-0.54195
				c-2.37865,6.02352-0.58094,6.80587-3.10523,13.19343l0.76218-0.48698c0.45513,4.09488-1.94099,2.66898-1.80877,6.63603
				l-2.09217,0.55139c-0.18689,1.24579-0.38122,3.45828-0.5306,5.91695c-0.158,2.45644-0.50264,5.09856-0.75428,7.30441
				c-0.83112-2.74541-0.13691-7.96056-0.08802-11.32585c-0.67347,2.38678-1.9941,8.19891-1.43271,9.6416
				c0.07158-1.00171-0.05065-2.32404,0.46919-3.20927c0.56267,3.26828,0.5665,7.28795-0.45688,12.0441
				c-3.45018-1.48541-2.89957,12.42685-5.80599,15.73055c0.05843,1.10724,0.05456,2.20406,0.03532,3.29979
				c0.02129,1.09885,0.00333,2.19475-0.04399,3.29341c-0.07946,2.19766-0.34016,4.40582-0.51962,6.66785
				c-0.27112,4.52235-0.73988,9.26521-0.25791,14.37964c2.55869-3.7692,0.23925,2.97685,3.02666,2.15648
				c0.30568,2.33304,0.43471,3.21942,0.24736,3.44725l-0.91506,7.29953c-0.58912,1.79907-0.90644-2.1633-1.47256-1.87863
				c0.42479,5.22067-0.8924,2.32489-1.1267,5.88438c0.88248-0.84933,1.70298,1.58931,1.7935,4.60817l0.62099-4.36113
				c1.28366,3.48587,0.9595,5.12158,0.73681,6.78387c-0.25592,1.65938-0.49965,3.36108,0.97447,6.8168l-1.33433-2.10059
				c1.20715,3.61679,3.45863,13.64496,6.76651,16.46791c-0.10227,0.72891-0.54456,1.80438-1.2346,0.27615
				c2.52905,8.7681,9.0905,17.97864,11.1281,24.68594l-0.87869-0.33237c0.92655,1.42551,2.31121,2.11392,2.77068,4.23486
				c-0.28682,0.02676-0.89326-0.30103-0.55255,0.40036c0.6286,0.68555,3.12646,3.38782,3.86541,5.51294l-1.5369-1.31982
				c1.73895,4.06985,4.03513,6.66003,6.14556,9.0878c2.27233,2.33374,4.53378,4.41855,6.79186,7.2793
				c-1.46177,0.99005,2.12696,6.94528,4.16031,9.75708l-0.27266,0.06259c1.61012,2.00064,3.16785,3.79694,4.74671,5.42319
				c1.63657,1.57736,3.25013,3.02274,4.85888,4.42758c1.57646,1.43555,3.29973,2.68811,4.98717,4.04501
				c1.71055,1.33426,3.38152,2.7821,5.26991,4.20236c2.9778,5.40305,14.55641,13.46045,21.95646,19.28067
				c-1.04805-1.02167,0.86189-0.84317,2.3272-0.04611c1.63699,1.53061,5.71619,2.31741,4.68885,3.30688l-0.6608-0.4241
				c0.73822,1.95071,4.79948,4.06345,7.96073,5.67114l1.33901-1.2193c3.43259,3.31607,9.07172,5.6947,14.23667,7.62909
				c2.61165,0.91501,5.06238,1.8537,7.16531,2.65009c2.11066,0.77725,3.81279,1.57285,4.83859,2.45071
				c2.21262,0.42938,4.85971,1.20212,7.08223,1.47311l-0.34778,0.71262c2.9319,0.97287,5.13202,1.70337,7.56911,2.26126
				c2.43623,0.54861,5.00978,1.3273,8.79411,1.86847l-1.64246,0.22076c4.25279,0.78799,5.74518-0.96051,9.62003-0.36169
				l1.00557,1.17426c3.70393,0.50116,7.39305,1.27274,11.13406,1.60599c1.8656,0.19644,3.72911,0.405,5.59419,0.4733
				c1.86891,0.01968,3.73357-0.02493,5.5842-0.16348c-0.12631,0.12625-0.35667,0.37753-1.56958,0.37527
				c3.50813,0.31827,13.62434,0.53168,12.32265-0.56128c0.10316,0.84323,7.69664-0.32965,11.66011-0.94534l-0.58153,0.57693
				c3.32135-1.0343,3.40662-1.21078,8.0771-1.89828c1.11769-0.07062,1.0222,0.26801-0.4706,0.31522
				c3.73024-0.25049,2.81259-0.87665,7.30954-1.3241l-1.61696,0.55771c3.79071-0.60416,3.47798-0.63953,5.47943-1.41357
				c2.32036-0.67242,7.12894-1.3721,7.76187-1.16687c0.44972-0.3569,2.40694-1.17874,4.61349-1.64984
				c0.32837,0.05255-0.44505,0.34372-0.83492,0.4899c3.13976-0.66516,5.40392-1.42621,7.39601-2.19998
				c2.0004-0.74747,3.77884-1.34686,5.91531-1.89883c0.12299,0.07806,0.41101,0.0325,0.76462-0.06284
				c-4.81198,1.66159-8.75578,2.80759-8.38858,2.68985c0.09549,0.34085,4.03979-0.88205,1.05138,0.59161
				c1.54099-0.64307,3.61568-1.53339,5.78609-2.38693c2.14932-0.91855,4.36856-1.87939,6.27454-2.50751
				c0.1925-0.04068,0.38031-0.08047,0.53378-0.08817l-0.37659,0.17859c0.87622-0.30145,1.6463-0.61169,2.35324-0.94742
				c1.19357-0.46338,1.95349-0.75452,3.08371-1.24054c0.51398,0.00183,4.41019-1.70584,6.23904-2.64175
				c-0.27466-0.19513,2.15631-1.32877-0.20389-0.44583c0.29901-0.12833-0.32825,0.2131-1.55832,0.79883
				c-0.27832,0.13153-0.60379,0.28525-0.79007,0.3732c0.03387-0.02271,0.07471-0.05032,0.11783-0.07935
				c-1.23395,0.53671-2.84329,1.23694-4.67184,2.03244c1.42682-0.79126,2.92798-1.57172,5.077-2.30908
				c0.88559-0.61505,1.85016-1.28503,2.38388-1.65576c2.70233-0.81531,7.6347-3.03964,8.36398-3.27435
				c2.70993-1.57449,5.94061-3.34717,8.7673-5.23434c1.42886-0.9158,2.79764-1.78873,3.99158-2.60172
				c1.16473-0.85931,2.17197-1.63092,2.92993-2.2623c1.44287-1.03378,1.75311-1.04828,2.33621-1.37085
				c-0.82666,0.60693-1.83862,1.2872-2.26596,1.64664c2.9462-1.98788,8.53366-6.15103,9.06183-6.85486
				c3.6282-2.6123-1.83835,1.73178,2.97531-2.08456l-0.59616,0.58386c2.38232-1.86029,4.50665-3.59641,6.49023-5.30588
				c1.90021-1.79321,3.71893-3.50952,5.56845-5.25497c3.57709-3.60431,7.23871-7.33484,11.78879-12.24637
				c-0.63708,0.67392-0.95566,1.01086-1.10086,1.13544c10.35764-11.22922,19.30298-24.8692,26.31528-38.16077
				c1.8262-3.83173,2.03561-4.271,3.16241-6.63528l0.42862-0.8222c0.60855-1.35709,1.14969-2.74435,1.73059-4.11313
				c0.61996-1.46262,1.19119-2.81049,1.7583-4.14868c0.50558-1.35242,1.00467-2.68738,1.52151-4.06998
				c0.51086-1.38962,1.03778-2.82263,1.60849-4.37503c0.49347-1.58224,1.02228-3.27776,1.62357-5.20523l-0.31229,0.98488
				c0.41217-1.37781,1.13498-3.53967,1.62067-5.33267c0.44336-1.72366,0.6748-2.62311,0.76151-2.96039
				c0.07397-0.28978,0.23392-0.91579,0.51157-2.0031l0.02396-0.08415c0.62585-2.27216,1.11829-4.57475,1.56299-6.8884
				c1.05292-5.37387-0.07742,0.85652,1.33481-7.00787c0.42105-2.78142,0.93765-6.19392,1.09933-7.26225
				c-0.17395,1.14761-0.41763,2.75427-0.47275,3.11778l0.40741-2.68678c0.07172-0.48735,0.38654-2.55299-0.61493,4.04155
				l-0.69818,4.5955l-0.30045,1.46683c0.28793-1.27284,0.46829-2.56468,0.66296-3.85414
				c-0.30234,2.19917-0.59998,3.57532-0.92151,5.11703c-0.08951,0.43484-0.21478,1.04326-0.39276,1.90793l-0.91849,4.46954
				c-0.13528,0.53592,0.47232-1.99039-0.25928,0.98238c-0.53192,2.07019,0.51706-1.98389-0.36536,1.44301
				c-0.55835,2.15228-0.40268,1.55217-1.05072,4.04955c-0.09418,0.35458,0.04276-0.18098,0.30124-1.18228
				c-0.5191,2.26709-1.64481,5.92108-2.0206,7.06052c-0.35831,1.13834-0.93842,2.9809-1.42972,4.54144
				c-0.53229,1.55307-1.02026,2.78506-0.98196,2.67703c-0.26254,0.71545-1.41696,3.86111-2.14423,5.84268
				c1.45871-3.61221-3.09702,7.35858-2.77142,6.37753c-0.51071,1.35074-1.64896,3.69293-2.92545,6.27673
				c-0.63766,1.29169-1.30594,2.64526-1.95633,3.96292c-0.70514,1.28592-1.3898,2.53479-2.00659,3.65967
				c0.13928-0.25772,0.40506-0.74921,0.61664-1.14084c-1.40189,2.48587-1.82245,3.23169-2.72852,4.83835
				c-0.13834,0.34616-2.4841,4.15738-3.71063,6.23615c-1.91617,2.95425,1.04984-1.86697,0.40985-0.96283
				c0.0668-0.06281-0.70993,1.25558-1.461,2.43881c-0.78543,1.16092-1.49734,2.21796-1.13315,1.74088
				c-1.57312,2.18777-1.33887,1.89648-2.19089,2.99319c-0.18384,0.44739-1.37018,2.10074-2.69965,3.89417
				c-2.41895,3.05621-0.71078,0.72089-3.27972,4.14145C343.10172,312.84827,345.37976,309.80273,345.37976,309.80273z
				 M264.43564,368.87595l-0.00238-0.00632c0.82111-0.2981,1.52133-0.55194,1.96808-0.7142
				C265.99188,368.30545,265.42493,368.51349,264.43564,368.87595z M256.34894,371.56073
				c0.99609-0.28983,2.24274-0.63538,3.54178-1.05966c0.31754,0.00525,0.06458,0.26718-0.76328,0.49921
				C259.54776,370.78787,257.59912,371.29974,256.34894,371.56073z M274.14148,367.40161
				c-1.23492,0.58539-1.67862,0.71216-1.87506,0.72705c0.58728-0.26575,1.27386-0.57648,2.17587-0.98468
				c0.03452-0.02551,0.09723-0.0719,0.133-0.09842C274.47903,367.15091,274.36429,367.26053,274.14148,367.40161z" style=""></path>
			<path fill="#5ca4a9" d="M276.23343,366.06403c0.17535-0.08905,0.27353-0.13901,0.50131-0.25449
				c-0.26453,0.09363-0.51474,0.18216-0.7684,0.2717c-0.13885,0.09479-0.28009,0.19131-0.40515,0.27664
				C275.78793,366.25864,276.02255,366.1561,276.23343,366.06403z" style=""></path>
			<path fill="#5ca4a9" d="M325.77954,68.57614l-0.12894-0.12766c0.09897,0.1114,0.18851,0.21213,0.25351,0.28536
				C325.83118,68.64152,325.82733,68.63672,325.77954,68.57614z" style=""></path>
			<polygon fill="#5ca4a9" points="141.77052,366.22134 141.71114,366.41803 142.45682,366.51483 			" style=""></polygon>
			<path fill="#5ca4a9" d="M355.23141,105.28894c0.0365,0.083,0.11768,0.24097,0.29153,0.54688
				C355.51624,105.80813,355.38824,105.57362,355.23141,105.28894z" style=""></path>
			<path fill="#5ca4a9" d="M365.05743,123.1016l1.22113,2.60727C365.74887,124.57789,365.36456,123.75742,365.05743,123.1016z" style=""></path>
			<path fill="#5ca4a9" d="M371.22116,137.48294c0.07309,0.15279,0.10242,0.21407,0.13278,0.27733
				c-0.004-0.01155-0.01013-0.02898-0.01013-0.02898L371.22116,137.48294z" style=""></path>
			<path fill="#5ca4a9" d="M172.66083,26.28678c-0.20314,0.03846-0.40242,0.08387-0.57857,0.13606
				C170.74367,26.83953,171.65875,26.58991,172.66083,26.28678z" style=""></path>
			<path fill="#5ca4a9" d="M245.47313,26.52122c-0.78447-0.08859-1.55655-0.17405-2.36319-0.30664
				C244.37216,26.57541,245.35767,26.83148,245.47313,26.52122z" style=""></path>
			<path fill="#5ca4a9" d="M99.89267,59.64867c0,0-0.00563-0.00775-0.00484-0.02085
				c-0.13686,0.10395-0.25753,0.19559-0.39439,0.29954L99.89267,59.64867z" style=""></path>
			<path fill="#5ca4a9" d="M239.75035,25.54453c1.26202,0.37029,2.34254,0.55145,3.35959,0.67004
				C242.06403,25.96728,240.83298,25.6645,239.75035,25.54453z" style=""></path>
			<path fill="#5ca4a9" d="M382.79538,203.95831l0.00131,0.75471c-0.00113,0.0293-0.00195,0.04843-0.00342,0.08975
				L382.79538,203.95831z" style=""></path>
			<path fill="#5ca4a9" d="M382.79327,204.80278l-0.04041,0.83748C382.77121,205.25847,382.78647,204.94119,382.79327,204.80278z" style=""></path>
			<path fill="#5ca4a9" d="M382.66776,207.40273l0.08511-1.76247C382.7236,206.24425,382.6889,206.96571,382.66776,207.40273z" style=""></path>
			<path fill="#5ca4a9" d="M381.95038,183.24596l-0.0296-0.2359C381.93298,183.10707,381.94037,183.16586,381.95038,183.24596z" style=""></path>
			<path fill="#5ca4a9" d="M381.25848,176.98209c0.22919,1.48557,0.39981,3.74991,0.63794,5.83379l0.02435,0.19418
				C381.79349,182.03241,381.49197,178.39151,381.25848,176.98209z" style=""></path>
			<path fill="#5ca4a9" d="M376.05502,151.20934c0.48062,1.69426,0.87164,3.41344,1.31314,5.1183
				c-0.21259-0.89908-0.48856-2.08267,0.10373,0.24696C375.87527,150.10547,377.80078,157.90918,376.05502,151.20934z" style=""></path>
			<path fill="#5ca4a9" d="M370.92059,135.64751c0.9707,2.66994,0.02536-0.0452,0.091,0.09044
				C370.3493,134.06215,370.16724,133.66545,370.92059,135.64751z" style=""></path>
			<path fill="#5ca4a9" d="M296.56775,45.83787l0.42191-0.14057C295.09845,44.56846,296.90271,45.80064,296.56775,45.83787z" style=""></path>
			<path fill="#5ca4a9" d="M275.65237,37.07292c0.61642,0.34901,1.23697,0.68676,1.83234,1.07763l1.06729,0.09118
				C277.59711,37.82469,276.63916,37.41573,275.65237,37.07292z" style=""></path>
			<polygon fill="#5ca4a9" points="264.39267,29.1569 265.31769,29.44196 261.81406,28.2772 			" style=""></polygon>
			<path fill="#5ca4a9" d="M75.80158,66.5525l1.39942,0.5016C78.16753,65.88854,77.39159,64.57378,75.80158,66.5525z" style=""></path>
			<path fill="#5ca4a9" d="M29.42048,139.99249c-1.05529,0.63675-2.23909,2.85947-2.00633,4.53099
				C28.09418,142.66838,29.21935,140.98076,29.42048,139.99249z" style=""></path>
			<path fill="#5ca4a9" d="M117.85262,364.05109l-1.71906-0.52435c1.02993,0.4278,2.04061,0.88876,3.09873,1.25348
				C118.77114,364.53922,118.29887,364.32037,117.85262,364.05109z" style=""></path>
		</g>
		<g>
			<path fill="#5ca4a9" d="M368.3652,221.46855c-0.07114,0.54659-0.01791,0.23912,0.12772-1.27534l0.10745-1.07559
				L368.3652,221.46855z" style=""></path>
			<path fill="#5ca4a9" d="M369.3042,211.27313c0.08783-1.78738,0.18643-3.84969,0.1279-2.69168
				c-0.08829,1.82767-0.10168,2.10498-0.19821,4.10521c-0.13339,1.39453-0.19504,2.04024-0.22849,2.39026
				c-0.05646,0.56352-0.22385,2.23477-0.31732,3.16968c0.15817-1.97438,0.53738-4.46326,0.62073-7.08517
				C369.33676,210.5995,369.31036,211.14439,369.3042,211.27313z" style=""></path>
			<path fill="#5ca4a9" d="M316.004,77.40419l0.67944,0.68088C316.49564,77.89687,316.26422,77.66498,316.004,77.40419z" style=""></path>
			<path fill="#5ca4a9" d="M234.74301,35.31608c0.6954,0.13108,0.99869,0.12289,1.0464,0.06673
				C235.13705,35.29075,234.60072,35.22134,234.74301,35.31608z" style=""></path>
			<path fill="#5ca4a9" d="M219.14342,32.0197c0.33879,0.05889,0.62318,0.10834,0.9295,0.16156
				C219.72412,32.06741,219.36903,31.98522,219.14342,32.0197z" style=""></path>
			<path fill="#5ca4a9" d="M316.004,77.40419l-1.74234-1.75581C314.06601,75.60809,315.13748,76.56808,316.004,77.40419z" style=""></path>
			<path fill="#5ca4a9" d="M369.33505,190.76987c0.02832,0.51044,0.05203,0.93686,0.07419,1.33539
				c-0.02295-0.42319-0.04523-0.83234-0.06815-1.25465C369.33908,190.82436,369.33746,190.80205,369.33505,190.76987z" style=""></path>
			<polygon fill="#5ca4a9" points="342.30515,108.38118 342.71805,109.00781 343.1181,109.49111 			" style=""></polygon>
			<path fill="#5ca4a9" d="M356.87411,135.96756c-0.26608-0.65439-0.43387-0.84998-0.57059-1.08588
				c0.18375,0.35498,0.39804,0.83125,0.64059,1.40097C356.96234,136.28738,356.94324,136.1951,356.87411,135.96756z" style=""></path>
			<path fill="#5ca4a9" d="M368.82642,183.79993l0.09036,0.87306C368.89316,184.44543,368.8537,184.06441,368.82642,183.79993z" style=""></path>
			<path fill="#5ca4a9" d="M328.92694,90.45059c-0.01175-0.05949-0.06567-0.16148-0.13324-0.26232
				C328.77432,90.20536,328.83005,90.30571,328.92694,90.45059z" style=""></path>
			<path fill="#5ca4a9" d="M359.94998,256.55276c-0.00775,0.02386,0.00305-0.00134,0.00305-0.00134
				C360.01486,256.38086,360.03339,256.32822,359.94998,256.55276z" style=""></path>
			<polygon fill="#5ca4a9" points="368.3652,221.46855 368.29004,221.96394 368.27383,222.07103 			" style=""></polygon>
			<path fill="#5ca4a9" d="M189.84895,30.17476c0.05783,0.00484,0.07773,0.00649,0.13187,0.01101
				C190.74998,30.06983,190.31183,30.09995,189.84895,30.17476z" style=""></path>
			<path fill="#5ca4a9" d="M30.97062,215.74033c0.83926-3.15031,1.9984,4.82941,2.80676,0.12744
				C33.31771,216.35495,31.32568,211.85588,30.97062,215.74033z" style=""></path>
			<path fill="#5ca4a9" d="M369.29306,189.96292c-0.02243-0.42052-0.04529-0.8477-0.0683-1.2762
				C369.25592,189.2683,369.27682,189.65877,369.29306,189.96292z" style=""></path>
			<path fill="#5ca4a9" d="M33.77738,215.86777l0.01016-0.00087l0.07305-0.48087
				C33.82615,215.58545,33.8068,215.69803,33.77738,215.86777z" style=""></path>
			<path fill="#5ca4a9" d="M124.62495,47.93598c0.2076,0.09937,0.51196,0.09864,0.8229,0.08668
				C125.37878,47.93829,125.1813,47.89418,124.62495,47.93598z" style=""></path>
			<path fill="#5ca4a9" d="M172.91322,33.72701l-1.24062,0.11874C172.17079,33.83138,172.56775,33.78171,172.91322,33.72701z" style=""></path>
			<path fill="#5ca4a9" d="M102.92353,62.73412c-0.59856,0.32911-0.87772,0.33947-1.53743,1.00593
				c0.10355-0.00476,0.19597-0.02256,0.30921-0.05526C101.8748,63.36436,102.19389,63.04371,102.92353,62.73412z" style=""></path>
			<path fill="#5ca4a9" d="M82.0947,80.25632c0.16771-0.03646,0.35244-0.12147,0.52901-0.1815
				c0.17915-0.20259,0.3883-0.4393,0.57281-0.64796L82.0947,80.25632z" style=""></path>
			<path fill="#5ca4a9" d="M315.18652,323.15402c0.46509-0.35596,0.76688-0.56421,1.00827-0.72076
				C315.81879,322.63129,318.73361,320.02161,315.18652,323.15402z" style=""></path>
			<path fill="#5ca4a9" d="M369.33969,190.7558c-0.0123-0.21017-0.02429-0.4127-0.04663-0.79288
				c0.01657,0.30635,0.03253,0.60042,0.04803,0.88768C369.34671,190.92799,369.34888,190.94507,369.33969,190.7558z" style=""></path>
			<path fill="#5ca4a9" d="M107.27806,70.54073l-3.36764,2.35047C104.8924,72.28486,106.11252,71.42808,107.27806,70.54073z" style=""></path>
			<path fill="#5ca4a9" d="M138.17836,350.91046l0.91148,0.29541C138.7614,351.03873,138.44298,350.9231,138.17836,350.91046z" style=""></path>
			<path fill="#5ca4a9" d="M94.8077,80.97491c-0.81386,0.18929-1.54982,0.53871-2.24948,0.96709
				c-0.06256,0.18324-0.15534,0.36927-0.14557,0.54482L94.8077,80.97491z" style=""></path>
			<path fill="#5ca4a9" d="M316.20261,322.42819l-0.00781,0.00507L316.20261,322.42819z" style=""></path>
			<path fill="#5ca4a9" d="M334.92654,301.80377c-2.4671,3.19229-1.07318,1.56665-1.54553,2.2847
				c-3.08133,3.70627-1.5061,1.64987-2.61444,2.8606c-0.94287,1.15677-1.78519,2.19006-2.56842,3.15097
				c-0.80283,0.93503-1.56689,1.77802-2.33121,2.59888c-0.13144,0.10663-0.4357,0.41898-0.10825,0.026
				c-2.01599,2.47113-6.58469,6.75385-9.16278,9.4158c-0.21722,0.17096-0.33179,0.25171-0.39331,0.28748
				c0.51187-0.33041,0.64337-0.32562,0.59628-0.19571c-1.35083,1.2059-2.42822,2.32733-3.02106,2.68732
				c0.8313-0.73602,0.86642-0.83484,1.22891-1.20831l-1.3812,1.30127c-1.39813,0.99765,1.89359-1.76703,1.80637-1.8623
				c-1.35504,1.2532-2.82745,2.61508-4.21747,3.9006c-1.43542,1.23462-2.81693,2.36829-3.93573,3.23813
				c-0.58932,0.21225,5.12057-4.20114,2.06274-1.96875c1.17145-0.87497,2.29425-1.80832,3.39215-2.77213
				c-2.69949,1.99667,2.00955-1.74252-0.50006,0.0578c-2.15164,1.91174-3.48239,2.82953-4.69943,3.87955
				c-1.25928,0.99774-2.43909,2.0975-4.81528,3.71289c-0.97464,0.85495,0.45596-0.10556-0.51767,0.75284
				c-3.22403,2.51459-4.63007,3.31393-5.84799,3.89789c-1.2012,0.6106-2.17422,1.06372-4.5929,2.83972
				c-1.22595,0.95871-1.57578,1.54745-5.35168,3.56207l1.09045-1.01642c-4.81836,2.77631-2.51974,2.00049-7.77991,4.5394
				c0.85217-0.60648,3.82382-2.12833,3.05719-1.77573c-3.48203,1.49722-2.27429,1.40921-4.84711,2.76163l-0.68781-0.02731
				c-5.33319,2.55539-11.18726,5.46045-17.37015,7.67465c0.3006-0.23553,1.31622-0.72131-0.17459-0.33643
				c-3.83774,1.53055-8.09023,2.71835-12.30357,3.85327c-4.26666,0.94925-8.4969,1.84756-12.44539,2.32156l-2.89467,1.005
				c-0.69481,0.12531-1.33293-0.02399-0.59045-0.20731c-3.09526,0.23309-0.1077,0.31583-1.55147,0.70004
				c-1.74258,0.27594-2.3494,0.04214-1.2666-0.24969c-5.30368,1.33719-15.40118,2.53046-21.17285,2.05951l1.11414-0.20892
				c-4.46643-0.17706-5.04283,1.16412-9.20517,0.60321l0.79953-0.09833c-9.70166-0.53394-20.48424-1.34384-27.54625-3.85199
				c-0.7798,0.36014-3.1066-0.26514-5.33598-0.82358c-2.24301-0.5062-4.33051-1.21304-4.82878-0.5116
				c-5.15404-2.19321-3.582-1.96652-10.76128-4.94489c-1.94098-0.69357-3.22789-0.06589-5.7002-0.80139l0.24609-0.85379
				l-3.58015-0.37247c-0.45226-0.54312-0.87993-1.1366-1.3055-1.72406l-2.27829-0.75958
				c0.85017,0.43903,1.69992,1.20541,1.46863,1.38879c-1.79967-0.56839-3.84181-1.63882-5.40018-2.63083
				c-1.54008-1.03683-2.57585-2.04083-2.51556-2.27335c-2.74599-1.07867-5.50299-2.15988-8.18179-3.42194
				c0.36224-0.2529,1.71529,0.35815,2.84563,0.71719c-4.57114-1.45038-0.24557-1.3429-4.43288-2.66797
				c0.39111,0.48474-0.56399,0.36462-0.75054,0.49261c-1.59222-1.57266-5.68799-4.23694-8.84831-6.02414l0.96144-0.20157
				c-5.22844-3.88858-11.37377-7.73193-16.8215-12.64651c1.75331,1.98779,0.45303,2.62469-1.2901,1.31549l0.12155-1.46579
				c-1.54704-0.3476,1.42643,1.8082-1.35223,0.62991c-1.95221-1.97162-0.44715-2.28149,0.94756-1.49503l-2.70132-1.97607
				c0.10181-0.40143,0.79717-0.00546,1.2515-0.2074c-1.49794-0.40115-3.33265-4.78809-5.55494-5.306l0.13056-0.39597
				c-1.25558-1.31772-2.3588-2.43491-3.37376-3.43661c-0.98142-1.03421-1.86266-1.96323-2.71516-2.8616
				c-1.72289-1.78235-3.34149-3.4386-5.17681-5.77515c-0.93903,0.61777-2.19481-1.36206-4.03182-2.19489
				c-1.15224-1.89661-2.26048-3.96713-3.47-6.08389c-1.18504-2.13562-2.3466-4.40414-3.84428-6.57239
				c-2.45644-2.83292-1.4108-0.38846-2.87395-1.45132c0.76601-0.80585-1.98909-5.30005,0.06282-3.33682
				c-1.71431-2.66006-2.66774-4.44-3.8313-6.34708c-0.58252-0.9534-1.20999-1.94321-1.97721-3.11401
				c-0.72155-1.19821-1.5583-2.58768-2.59823-4.31464c-0.04105,0.98273,0.20127,1.96265-0.35701,1.6629
				c-0.79097-1.25363-0.99875-3.21927-0.42057-3.24854l0.2684,0.30072c-2.59626-3.78183-3.85122-8.96072-4.72735-13.8903
				c-0.52899-2.43999-0.82032-4.8756-1.3694-7.04199c-0.26862-1.08577-0.58289-2.11122-0.96752-3.0591
				c-0.33519-0.96188-0.74282-1.84575-1.24973-2.63441l0.21172,0.35748c-0.96492-2.29184-2.0943-4.56493-2.93094-6.92447
				c-0.46933-3.39494,1.253,1.82285,1.46774-0.80478c-0.86029-1.8502-1.43472-3.56334-1.84418-5.17714
				c-0.32962-1.62874-0.49713-3.15822-0.64102-4.64267c-0.35034-2.96585-0.34143-5.76973-1.31895-8.98428
				c0.71559-1.34621,0.99586-3.12486,1.1069-5.16046c0.11237-2.03371-0.17514-4.31607-0.25743-6.66821
				c-0.09836-2.35001-0.26856-4.76347-0.21927-7.01233c0.13398-2.24637,0.4259-4.32724,1.07267-5.99011l-0.848,0.34178
				c-0.72044-1.81938,0.56139-2.10567,0.89741-3.37604c-0.66048,0.12862-0.9384,1.84869-1.27613,0.71992
				c0.1752-7.52222,1.50455-15.24054,3.71336-22.71803c2.2782-7.46185,5.01063-14.78165,8.12774-21.72978
				c2.12889-5.11432-2.75288-4.54605,1.7543-10.36298l0.60479,2.47208c2.86439-11.18064,10.32481-20.67184,15.59501-30.50922
				c-0.12167,0.73363,0.20515,0.99118-0.39635,1.89313c2.19146-1.30336,5.17406-6.93708,4.53383-7.52342
				c1.18002-1.28168,0.8606,0.17155,1.87489-0.37903c1.96532-1.40378,2.69113-5.46394,4.33456-5.70039
				c0.27006-0.04424-0.19752,0.70757-0.41173,1.09055c0.63787-1.47933,4.86251-5.22023,3.01211-4.93992
				c1.57719-1.3912,2.91819-2.87144,4.17251-4.30301c1.27325-1.40865,2.41425-2.8183,3.90821-3.66486
				c0.76057-2.41486,5.65435-4.42167,5.07283-6.17431c0.99475,1.63079,6.51759-3.61426,8.2185-5.80775
				c-0.38013,0.97649,2.17559-0.93562,1.79283,0.30345c2.34511-1.89068,4.48181-3.66573,3.52523-4.13898
				c5.67194-1.4611,8.56532-7.57558,12.61911-6.88001c7.29041-5.36592,14.7512-9.34702,22.24438-12.64242
				c0.14249,0.81601-1.9838,1.55164-3.9398,2.4984c-1.97005,0.91225-3.85933,1.80007-3.36243,2.50979
				c1.68964-0.92387,3.18376-1.80818,4.58958-2.65607c1.43993-0.77899,2.78911-1.50896,4.13504-2.23703
				c2.69881-1.48055,5.54501-2.59679,9.26114-3.59945c1.9512-0.41493-0.89459,0.97173-1.45113,1.4266
				c3.55159-1.57763,7.21507-2.36867,10.7065-3.3544c3.55426-0.7241,6.95494-1.67114,10.30814-2.53643
				c0.0014,0.12912-0.70959,0.38979-1.38303,0.60997c1.33124-0.26829,3.14079-0.32573,2.89629-0.91307l-1.28087,0.38477
				c-2.30798-0.54322,5.06763-2.7409,5.27739-3.20584c-2.09286,1.97987,6.88309-0.31509,3.4489,2.24468
				c0.87421-0.21701,1.96289-0.62626,1.72209-0.99574c1.33531-0.03603,1.77008,0.14091,0.47444,0.74553
				c4.80318-0.90195,3.05415-1.21224,7.47231-1.53563c-0.00333,0.27613-0.88971,0.43934-1.32735,0.79489
				c2.19739-0.68116,4.44154-1.41559,8.19806-1.17572c-0.22466,0.16254,0.21068,0.36454-0.90549,0.37633
				c3.21123-0.08898,5.9588-0.50299,8.797-0.5887c2.83783-0.15926,5.77281-0.23594,9.2802,0.37791
				c-2.18214,0.84965,2.36658,0.55907,2.63728,1.46976c1.27206-0.0058,2.53589,0.07323,3.79967,0.17078l-1.45424-0.62725
				c3.28775,0.49817,6.32738,0.21872,9.10474,1.02092c-0.83043-0.05992-1.66525-0.08622-2.505-0.07322
				c2.07492,0.21836,4.11452,0.64996,6.17715,0.96814l-3.41847-0.9767c3.40224,0.2402-0.16257-1.08532,4.17574,0.01338
				c-0.91116-0.08932,3.30698,0.62953,4.877,1.56658l-0.01155-0.00074c1.66534,0.16305,3.38934,0.34483,5.74768,1.13131
				c0.56061,0.38276-0.72333,0.65959-0.35934,0.91176c1.73253-0.13333,7.5621,2.01801,9.70657,2.14591
				c-0.69684-0.10039-0.84741,0.22986-0.65817,0.37588l1.44376,0.0253c1.41159,0.66611,1.60037,0.80662,1.26752,0.98597
				c4.36154,1.64598-1.10233-1.29326,3.98621,0.92313c-0.42239-0.11436-0.25107,0.01764-1.12799-0.22605
				c5.13165,2.13136,10.07684,3.79269,14.58487,6.24139c1.10593,1.15947-4.0976-1.78547-2.75305-0.60184
				c6.76605,2.87334,13.87112,6.40996,19.83786,10.34671l-1.07745-0.78484c1.18265,0.0075,4.25632,3.21263,7.38428,5.03222
				c-0.73148-0.49904-1.14227-0.39656-0.90305-0.32134c1.93954,1.48714,3.965,2.94663,6.26996,4.56867
				c2.22305,1.72272,4.74603,3.59149,7.5878,5.98026l-0.76816-0.51917c2.0336,2.05065,5.65234,5.0799,7.75574,7.38789
				c0.73718,0.57027,1.98447,1.84675,1.33694,0.9637c6.32135,7.2311,12.56586,13.41238,17.21463,20.61894
				c-0.61075-0.81812-1.51358-1.90735-1.02695-1.25764c1.51816,1.89285,2.81046,3.94636,4.20853,5.92732
				c-0.2215-0.54323-0.47311-0.83007-1.24603-2.15293c0.57474,0.72312,1.76321,2.40272,2.76575,3.9044
				c-1.90298-2.67031-0.10434,0.1023,0.55847,1.353c-0.09378-0.22088,0.18924,0.17345,0.15665,0.0526
				c1.80322,3.35429,0.51532,0.43219,3.08542,4.94862l-0.18747-0.20912c1.06244,1.63041,1.8848,3.22427,2.8913,5.06389
				c0.32028,0.81456-1.02469-1.79897-1.16672-1.873c1.39627,2.58812,2.98151,4.99743,3.9906,7.47318
				c-0.55975-1.11826-1.32706-2.74554-1.9744-3.81824c1.29016,2.5983,1.3653,2.93572,2.31543,4.86932l-0.08997-0.19211
				c0.69641,1.50735,1.43793,2.99411,2.10184,4.51547c-0.14984-0.39607-0.32785-0.77962-0.50522-1.16351
				c0.88342,1.6208,1.56769,3.37044,2.37335,5.23933c0.39432,0.93832,0.80362,1.91257,1.23547,2.94034
				c0.39163,1.0349,0.80148,2.11777,1.24741,3.29607c-1.74734-4.49812-0.32932-0.72812-0.52209-1.05119
				c0.41721,1.1965,1.06293,3.01065,0.85556,2.50237c0.88986,2.17284,1.29492,3.69174,2.32916,6.83548
				c0.02719,0.14673,0.74744,2.39513,0.54861,1.90213c0.92581,2.90579-0.18823-0.69569-0.09003-0.45732
				c1.439,4.47696,2.8858,10.66603,4.22787,17.29335c0.53937,2.86502,0.75278,4.58194,1.03473,6.23352
				c0.28403,1.65215,0.52426,3.25742,0.76941,5.95473c0.17749,1.81865-0.17267-1.48619-0.17267-1.48619
				c0.26285,2.93544,0.59277,5.13312,0.74216,7.90681c-0.03265-0.56166-0.00537,0.01756,0.03528,0.86339
				c0.11853,2.19,0.08215,1.51759,0.23926,4.42393c-0.03009-0.52057-0.06967-1.20515-0.12845-2.22298
				c0.07004,1.30829,0.13989,2.61311,0.21042,3.93008c0.00372,1.31918,0.0076,2.64873,0.01154,4.00513
				c-0.00137,0.72122-0.00784-1.6412-0.01276-2.59984c0.00357,3.05602,0.05582,7.92033-0.07156,8.86116l0.09329-1.95857
				c-0.05411,1.11261-0.01196,0.57271-0.00357-0.24886c-0.00266-2.56941-0.00388-3.66344-0.00412-3.92609l0.00421,1.93683
				c-0.00104-1.17641-0.00259-2.96902-0.00446-5.12308c-0.01526-2.18318-0.21735-4.59995-0.29694-6.54712l0.09796,1.62225
				l-0.21912-3.99307c-0.06152-0.84775-0.07416-1.43044,0.04181,0.49117c-0.18283-2.78868-0.23215-2.46306-0.44342-4.85486
				c-0.02481-0.26373-0.01166-0.14462,0.01389,0.09953l-0.28189-2.71687c0.05908,0.53197-0.02811-0.45412,0.13647,1.21602
				c-0.4278-4.88663-1.12738-7.82367-1.31415-9.66086l0.06329,0.40486c-1.18607-6.69614-0.10648-0.64923-1.1228-5.64787
				l-0.59879-3.38297l-0.16931-0.64751c-0.15845-0.68362-0.50772-2.02736-0.42535-1.78294
				c-0.67139-2.52469,0.09262,0.43553-0.30789-1.02708c-0.41226-1.63715-0.9483-3.90471-1.50333-5.82689
				c-0.58981-1.91249-1.07959-3.51329-1.14743-3.8913c-0.39822-1.14558,0.91827,3.09769-0.1716-0.3398
				c-0.1041-0.5062-0.41321-1.50198-0.80603-2.74051c-0.44144-1.22426-0.96228-2.66858-1.49213-4.13817
				c0.38068,0.86984,1.33899,3.6337,0.34442,0.70847c-0.70435-1.72603-2.01028-5.66672-3.08578-8.04385
				c-0.0697-0.0372-0.62329-1.33992-1.37332-3.13632c-0.77292-1.78578-1.87073-4.00865-2.81107-5.98022
				c0.22562,0.19913-3.61554-7.38991-5.65781-10.911l0.08447,0.08975c-0.57629-0.57398-2.58395-4.26503-4.33917-6.76768
				c0.15381,0.04306,0.51456,0.46455,1.43796,1.83967c-0.49893-0.81782-1.04639-1.60499-1.56714-2.40904
				c-0.42377-0.53352-0.94467-1.2635-1.99127-2.80519l0.52051,0.52c-1.02853-1.61552-2.17062-3.16766-3.43481-4.80008
				c-1.27203-1.62493-2.48981-3.46286-4.02945-5.38469c-0.30984-0.10278,2.10544,3.31351-1.26892-0.63493
				c-0.0502-0.20677-0.04715-0.45666,0.83951,0.57626c-0.28989-0.33876-1.06171-1.18449-1.59705-1.90608l1.43011,1.51446
				c-1.35568-1.78509-0.83862-0.82829-1.95581-2.22681c0.12723-0.05936-0.7594-1.0927-0.51346-0.96352
				c0.29749,0.34791,0.93903,1.25217,1.41107,1.75229c-1.21436-1.59268-2.6731-3.50591-3.20154-4.19892
				c0.05481,0.18624-0.14609,0.12705-1.14359-0.96649c-2.54895-2.85417-0.73547-1.10017-2.15668-2.82904
				c-0.66614-0.64733-2.29276-2.47371-2.51483-2.34875c-0.78204-0.80207-0.84454-1.03092-1.09848-1.38856
				c-0.7417-0.66072-2.32547-2.35291-3.64529-3.55956c-1.32684-1.20007-2.28436-2.02049-1.56549-1.15444l0.35925,0.35941
				c-0.07242-0.06239-0.15646-0.135-0.24533-0.21152c0.01172,0.0108,0,0,0.01172,0.0108l-0.01172-0.0108
				c-1.23535-1.05429-2.46552-2.1576-3.68979-3.29062c-1.258-1.09461-2.52734-2.19913-3.79675-3.30351
				c-2.4906-2.26745-5.14264-4.33597-7.74194-6.2409l0.07571-0.08581c-1.53961-1.15578-3.35602-2.29588-5.01407-3.41991
				c-1.67514-1.0989-3.21512-2.15364-4.47739-2.72599c-0.96704-0.59562-2.1571-1.61362-1.66153-1.49091
				c-2.56973-1.44403-2.85977-1.5914-6.48215-3.82663c2.70685,1.22969-0.78574-0.68866,2.73849,1.32513
				c-3.28821-1.95766-3.92044-2.63704-7.72443-4.23865c1.42862,0.29018-2.36658-1.72328-4.05237-2.43555l2.28381,1.45239
				c-1.86029-0.86002-3.44901-1.68872-5.06729-2.52861l1.1059-0.04668c-3.43741-1.94701-6.79343-3.18349-9.96115-4.16638
				c-3.19626-0.92588-6.08313-1.93816-8.76122-3.40559c-2.11406-0.22458,3.97011,1.61319,2.03819,1.51579
				c-3.40579-1.16177-6.72717-3.2333-7.81816-3.57875c-4.7146-1.6498-4.70668-0.34674-9.68768-1.78743
				c0.59607,0.38737,1.05347,1.15429-2.76622,0.60996c-3.50087-0.81491-4.13977-1.98764-1.8624-1.70875
				c0.85417,0.16213,1.24843,0.33124,1.19533,0.40855c1.16199,0.15337,2.68825,0.37414,1.3405-0.2015l-0.51172,0.15022
				c-0.85318-0.31823-2.50247-0.73757-3.78651-1.09958c-1.2878-0.33907-2.22105-0.56759-1.60315-0.69454
				c-2.75475-0.20633-1.22832,0.24105,0.75111,0.70469c-4.53935-1.09502-7.15993-1.32466-11.90672-2.06084
				c0.74307,0.24392,1.40331,0.652,0.65041,0.5648c-6.95648-1.08854-3.11797,0.08852-7.86165-0.06818
				c-2.66809-0.61053,1.03047-1.02684-3.77608-0.93386c-2.91522-0.49419-0.59555-0.85224,0.58745-1.0173
				c-2.205,0.11102-4.24733-0.05255-6.06705-0.24165c-1.81738-0.21795-3.40912-0.52996-4.6723-0.61064l2.32449-0.21271
				c-1.39149,0.1332-2.53131,0.07969-3.69246,0.09529c0.44878,0.19221,0.89691,0.43171,1.34286,0.64855
				c-1.36496-0.15839-2.51749-0.05627-2.50214-0.34912c-1.38438,0.47698,1.10493,1.04088-1.63715,1.73616
				c-1.82114-0.24513-5.45995,0.54959-6.14801-0.23045c5.70493-0.00584-0.70229-0.90086,4.12141-1.23363
				c-0.92754,0.13979-2.06528,0.16566-3.44269,0.10837c-0.21236-0.08331,0.17825-0.20571,0.54892-0.26213
				c-5.54164-0.39689-2.42702,1.21052-8.05743,1.67819c0.65399-0.59251-1.43382-0.87495-2.33731-0.61239
				c2.2738-0.29146,1.19168,0.72141-0.81444,1.41502c-3.64909,0.08726-3.84746,0.85287-5.72655,1.07142l2.17166-0.10746
				c-0.63724,0.62592-2.43092,0.80711-4.85312,1.49471c-0.29404-0.38221,2.18199-0.72646,1.26714-0.74087
				c-2.52803,1.5302-6.43187,0.0978-10.06912,1.75238c-1.85526,0.05096-0.43494-1.00676-2.05606-0.89042
				c-4.09073,1.72095-4.84106,0.44804-9.13474,2.31531c1.53319,0.39482,1.67946,0.13525-1.18576,1.80951l7.10692-2.68641
				l-4.32463,2.48942c2.18681-0.62233,4.45241-1.89869,5.82631-2.0667c-2.06697,1.18493-1.86519,0.99754-0.65492,1.29325
				c-3.30563-0.21827-5.70218,2.37497-9.33163,2.77958l-0.55733-1.95047c-2.72052,0.48763-4.96338,1.46719-7.29297,2.71467
				c-2.30826,1.31076-4.81641,2.61014-8.13553,3.84903c0.74409-0.19519,1.46616-0.43538,2.22296-0.59351
				c-0.53131,1.12459-3.90271,1.93144-5.82779,3.20043c-0.12599-0.7407-1.5426-0.38063-2.63676-0.36679
				c0.35638,0.42883-4.64062,2.35673-4.48888,3.96019c-1.07888,0.21406-2.19275,0.37863-3.2553,0.64658
				c-5.15561,2.55924-4.53484,5.08459-9.17429,7.89951c0.90678-1.60557-1.48719-0.6963,1.26632-3.21328
				c-1.54285,0.99764-3.00881,1.78383-2.72973,2.24601c-0.58058,0.09848-1.51291,0.99366-2.48474,1.95048
				c-0.95611,0.98135-1.98229,1.97987-2.8859,2.17264c-0.41893,0.73383-0.12449,1.54729-1.81168,2.7002
				c-0.27843,0.00356-0.23248-0.31689-0.23248-0.31689c0.20538,0.28806-2.20151,2.37628-0.26177,1.96809
				c-5.99173,1.50454-11.89429,10.07279-16.76568,12.03862c-2.72411,2.93221-5.7024,6.72337-8.09612,9.42766
				c-0.0433-0.34489-0.31339-0.28787,0.1951-0.7534c-3.82605,3.31912-0.11993,3.91463-4.37991,7.70018
				c-2.87774,1.41451,1.27016-2.8287-0.25405-1.73739c-2.73109-1.14098-3.93999,5.62989-7.47443,7.7895l0.39133-0.86581
				c-2.4694,1.88795-3.26135,6.48125-5.86061,10.47795c0,0-0.09768-0.33264-0.36198-0.25321
				c-0.51965,3.53246-3.05765,9.15209-4.72185,13.4143c-0.4138-1.79599,0.36493-2.1465-1.06684-1.89517
				c-0.75337,1.92441,1.94336,0.32126,0.45963,4.1276c-1.13715,0.9162-2.97391,3.31731-4.23929,3.18681
				c0.48008-1.20685,1.07795-2.36053,1.61194-3.54395c-2.39936,1.08319-2.10778,4.59201-3.14414,6.36693l-0.55441-0.52327
				c-2.195,5.60051-0.40509,6.37299-2.75635,12.29643l0.74448-0.43883c0.54556,3.83977-1.87061,2.45328-1.65604,6.16319
				l-2.06784,0.47334c-0.15828,1.16107-0.30833,3.22379-0.41712,5.51295c-0.1166,2.28732-0.40673,4.74521-0.62795,6.79378
				c-0.8673-2.5676-0.27134-7.42093-0.28089-10.56169c-0.62667,2.21591-1.84349,7.61639-1.25866,8.96985
				c0.05399-0.93271-0.09069-2.16798,0.41164-2.98492c0.62275,3.05917,0.67683,6.79727-0.27464,11.2081
				c-3.45506-1.4227-2.7546,11.51854-5.65028,14.56584c0.09115,2.05603,0.0847,4.08327,0.02583,6.12657
				c-0.07281,2.04114-0.32213,4.09163-0.49865,6.19235c-0.27116,4.19998-0.7356,8.60753-0.27944,13.35902
				c2.57192-3.51166,0.22833,2.76483,3.01803,1.98897c0.29695,2.16408,0.41335,2.98657,0.22633,3.19922l-0.96822,6.78899
				c-0.60466,1.6785-0.88609-2.00337-1.45661-1.7339c0.38083,4.85257-0.9126,2.17058-1.1812,5.48709
				c0.89014-0.79955,1.68355,1.46194,1.7421,4.27174l0.66592-4.06685c2.46937,6.42223-1.25628,6.1973,1.53356,12.64711
				l-1.30131-1.93863c1.15853,3.35295,3.22096,12.68515,6.44386,15.25934c-0.11638,0.68362-0.57742,1.69931-1.23224,0.28363
				c2.32907,8.16008,8.606,16.63683,10.41311,22.90199l-0.85765-0.28848c0.87369,1.31845,2.22522,1.92444,2.61169,3.9147
				c-0.28322,0.03354-0.87046-0.25867-0.5559,0.39392c0.59856,0.62994,2.97617,3.10815,3.64019,5.0939l-1.47292-1.20081
				c1.59218,3.7941,3.75471,6.18448,5.75145,8.41586c2.14714,2.14423,4.29092,4.04953,6.40024,6.69482
				c-1.4636,0.99313,1.84132,6.54648,3.71719,9.16986l-0.26717,0.06915c1.49471,1.86005,2.94753,3.52484,4.42326,5.02823
				c1.52926,1.45804,3.0407,2.78961,4.54844,4.08209c1.47789,1.32089,3.09267,2.47034,4.67281,3.7171
				c1.6016,1.22562,3.16499,2.5574,4.92712,3.86627c2.68169,5.10684,13.49012,12.52551,20.32838,17.97574
				c-0.96313-0.96399,0.84801-0.85266,2.21455-0.12302c1.50944,1.43756,5.34777,2.08463,4.34268,3.08551l-0.61284-0.3945
				c0.63586,1.89014,4.42484,3.82645,7.3609,5.31818l1.30252-1.23972c3.14457,3.15289,8.39378,5.34058,13.1965,7.11505
				c2.42883,0.83887,4.70778,1.69934,6.65939,2.43848c1.95885,0.72165,3.53444,1.47089,4.47545,2.31738
				c2.06392,0.37076,4.52158,1.08572,6.59273,1.31009l-0.33961,0.71509c2.72073,0.90634,4.76274,1.58679,7.02553,2.10352
				c2.26205,0.50769,4.65256,1.22571,8.16769,1.71747l-1.5331,0.24289c3.94987,0.7283,5.36407-1.04239,8.95839-0.49185
				l0.92078,1.16129c3.43781,0.46048,6.85954,1.18774,10.33128,1.49973c1.73111,0.18356,3.46046,0.37634,5.19183,0.43469
				c1.73462,0.01312,3.46559-0.03827,5.18353-0.18347c-0.11777,0.12674-0.33217,0.37888-1.45802,0.38098
				c3.25526,0.29333,12.64426,0.51651,11.43466-0.57803c0.09677,0.83582,7.14149-0.31,10.8149-0.90506l-0.53644,0.57227
				c3.07713-1.00931,3.15456-1.18509,7.48407-1.83768c1.03703-0.06183,0.95137,0.27515-0.43405,0.31119
				c3.46184-0.21707,2.60376-0.84665,6.77626-1.24649l-1.49619,0.53928c3.51572-0.56067,3.22388-0.60458,5.07532-1.34698
				c2.14902-0.63684,6.61092-1.26761,7.20419-1.05188c0.41335-0.34741,2.22281-1.13156,4.27046-1.56207
				c0.30684,0.05817-0.40881,0.3342-0.76949,0.47314c2.91362-0.60947,5.0107-1.32526,6.85564-2.0502
				c1.85268-0.7009,3.49959-1.2627,5.48421-1.76389c0.11682,0.08032,0.38513,0.0419,0.71375-0.04422
				c-4.46143,1.54373-8.11842,2.60828-7.77844,2.49686c0.09554,0.34058,3.7542-0.79425,0.99298,0.60953
				c1.42627-0.60782,3.34587-1.4502,5.3548-2.25388c1.98938-0.86401,4.04462-1.76294,5.81348-2.34213
				c0.17926-0.03586,0.35394-0.07074,0.4975-0.07492l-0.3483,0.16837c0.81332-0.2785,1.52646-0.56879,2.18057-0.88416
				c1.10776-0.4274,1.81314-0.69595,2.86105-1.1474c0.48315,0.01721,4.09201-1.57834,5.78778-2.44702
				c-0.26367-0.20047,1.99133-1.25015-0.20392-0.4458c0.27777-0.11783-0.30319,0.20016-1.44324,0.74481
				c-0.25754,0.1228-0.5585,0.26639-0.73141,0.34885c0.03134-0.02188,0.06894-0.04803,0.10846-0.07565
				c-1.14362,0.49899-2.63535,1.14996-4.33008,1.8894c1.31815-0.74564,2.7059-1.47864,4.70291-2.15231
				c0.8168-0.58334,1.70499-1.21786,2.19534-1.56808c2.51749-0.72916,7.09616-2.7821,7.77972-2.9859
				c2.50934-1.46738,5.50302-3.11499,8.12061-4.8707c1.32306-0.85199,2.59021-1.66479,3.69449-2.42273
				c1.07727-0.80096,2.00784-1.52133,2.70639-2.11298c1.33517-0.96204,1.62943-0.96576,2.17227-1.26169
				c-0.76459,0.56552-1.70258,1.1965-2.09637,1.53357c2.72638-1.8511,7.9071-5.71027,8.38593-6.37695
				c3.3674-2.41684-1.69391,1.61917,2.7655-1.92343l-0.54944,0.54565c2.21201-1.72079,4.18057-3.33163,6.01752-4.91901
				c1.75775-1.66541,3.44113-3.26016,5.1532-4.88223c3.3093-3.34885,6.69937-6.8103,10.92377-11.35764
				c-0.59149,0.62408-0.88693,0.93607-1.02298,1.05048c9.60251-10.40936,17.88388-23.06052,24.38748-35.37872
				c1.68903-3.54846,1.88428-3.9588,2.92828-6.15231l0.39896-0.76117c0.56326-1.25839,1.06381-2.54468,1.60172-3.81387
				c0.5741-1.35483,1.10431-2.6062,1.62939-3.84558c0.46866-1.25296,0.93152-2.49069,1.41083-3.77246
				c0.47391-1.28891,0.96225-2.61722,1.49097-4.05542c0.45654-1.46455,0.94708-3.03839,1.50406-4.82513l-0.2897,0.91278
				c0.38181-1.2771,1.05173-3.28108,1.50183-4.94316c0.40955-1.59193,0.62216-2.41837,0.70581-2.74397
				c0.06879-0.26918,0.21677-0.84901,0.47406-1.85678l0.02231-0.07802c0.57996-2.10606,1.03613-4.24049,1.44836-6.38506
				c0.97592-4.98125-0.07156,0.79393,1.23727-6.49579c0.38898-2.57007,0.86884-5.74081,1.01886-6.73163
				c-0.16058,1.05856-0.38361,2.52968-0.43832,2.89009l0.37769-2.49051c0.0665-0.45169,0.35831-2.36644-0.5701,3.74608
				l-0.64728,4.25974l-0.27863,1.35959c0.26703-1.17984,0.4342-2.37727,0.61472-3.57246
				c-0.2804,2.03841-0.55634,3.31404-0.85431,4.74312c-0.08487,0.41161-0.20041,0.97214-0.36444,1.76849l-0.85138,4.14287
				c-0.12561,0.49678,0.43781-1.84499-0.24072,0.91048c-0.49292,1.91887,0.47983-1.83882-0.33832,1.33755
				c-0.51801,1.99498-0.37451,1.44272-0.97452,3.75345c-0.08759,0.32857,0.03925-0.16779,0.27902-1.0959
				c-0.48129,2.10126-1.52536,5.48813-1.8732,6.54449c-0.33405,1.05983-0.87082,2.76355-1.32639,4.20911
				c-0.49359,1.4395-0.94623,2.58131-0.91147,2.48088c-0.24487,0.66742-1.31433,3.582-1.98721,5.41559
				c1.35043-3.34869-2.87238,6.82001-2.57349,5.90939c-0.47256,1.25217-1.52777,3.423-2.71167,5.81744
				c-0.59128,1.19717-1.21103,2.45163-1.81424,3.6727c-0.65335,1.19165-1.28778,2.34848-1.86002,3.39194
				c0.12958-0.23984,0.37546-0.69519,0.57114-1.05753c-1.30026,2.30023-1.69229,2.99377-2.53345,4.48184
				c-0.12436,0.32291-2.29898,3.85516-3.43338,5.78357c-1.78152,2.73459,0.96802-1.7337,0.37045-0.89844
				c0.0639-0.05701-0.65601,1.16501-1.35129,2.26205c-0.72729,1.07651-1.38644,2.05664-1.04718,1.6156
				c-1.46109,2.0257-1.24243,1.75671-2.03644,2.77026c-0.16434,0.41882-1.26852,1.94785-2.49854,3.61163
				c-2.24762,2.82825-0.66611,0.66263-3.04779,3.83224C332.81494,304.62585,334.92654,301.80377,334.92654,301.80377z
				 M259.89963,356.51727l-0.00235-0.00635c0.76074-0.27609,1.40955-0.51157,1.82349-0.6619
				C261.3414,355.98822,260.81616,356.18097,259.89963,356.51727z M252.40527,358.99997
				c0.92342-0.26682,2.07872-0.586,3.28275-0.97858c0.29697,0.01358,0.06558,0.26486-0.70174,0.4791
				C255.37389,358.29816,253.56627,358.76666,252.40527,358.99997z M268.95688,355.30084
				c-1.14368,0.54721-1.55661,0.66119-1.7406,0.67078c0.54407-0.24768,1.1803-0.53729,2.01611-0.91782
				c0.03177-0.02441,0.08899-0.06833,0.12222-0.09387C269.267,355.06161,269.16229,355.1669,268.95688,355.30084z" style=""></path>
			<path fill="#5ca4a9" d="M270.88437,354.03201c0.16241-0.08322,0.25342-0.12976,0.46417-0.23776
				c-0.24612,0.08545-0.4787,0.16614-0.71429,0.24805c-0.12778,0.09003-0.25763,0.18164-0.37283,0.26291
				C270.47159,354.21307,270.68893,354.11768,270.88437,354.03201z" style=""></path>
			<path fill="#5ca4a9" d="M316.80258,78.20375l-0.11914-0.11868c0.09534,0.10247,0.18222,0.19713,0.23306,0.26656
				C316.85022,78.2656,316.84628,78.26037,316.80258,78.20375z" style=""></path>
			<polygon fill="#5ca4a9" points="146.31396,353.86566 146.25378,354.06198 146.94815,354.13965 			" style=""></polygon>
			<path fill="#5ca4a9" d="M344.06674,112.26438c0.03305,0.07753,0.1076,0.22433,0.26813,0.50818
				C344.32925,112.74658,344.21121,112.52882,344.06674,112.26438z" style=""></path>
			<path fill="#5ca4a9" d="M353.17755,128.77164l1.13037,2.41707C353.81738,130.13991,353.46173,129.37933,353.17755,128.77164z" style=""></path>
			<path fill="#5ca4a9" d="M358.8934,142.09964c0.06763,0.13904,0.09583,0.19673,0.12494,0.25639l-0.0094-0.02689
				L358.8934,142.09964z" style=""></path>
			<path fill="#5ca4a9" d="M174.89511,39.26336c-0.18793,0.03621-0.37227,0.07933-0.53481,0.12951
				C173.12383,39.79228,173.96965,39.55547,174.89511,39.26336z" style=""></path>
			<path fill="#5ca4a9" d="M242.33038,39.30443c-0.72868-0.07425-1.44597-0.14562-2.19432-0.26326
				C241.30481,39.37803,242.2177,39.61547,242.33038,39.30443z" style=""></path>
			<path fill="#5ca4a9" d="M107.64783,70.2839c0,0-0.00563-0.00774-0.00546-0.0205
				c-0.12642,0.09622-0.23791,0.18111-0.36432,0.27734L107.64783,70.2839z" style=""></path>
			<path fill="#5ca4a9" d="M237.02325,38.42158c1.16739,0.35105,2.16896,0.51609,3.11281,0.61958
				C239.16753,38.80993,238.02777,38.52554,237.02325,38.42158z" style=""></path>
			<path fill="#5ca4a9" d="M369.63193,203.71312l0.00134,0.69958c-0.00104,0.02773-0.00177,0.04602-0.0033,0.08316
				L369.63193,203.71312z" style=""></path>
			<path fill="#5ca4a9" d="M369.62997,204.49586l-0.03729,0.77628C369.60974,204.91876,369.62369,204.62674,369.62997,204.49586z" style=""></path>
			<path fill="#5ca4a9" d="M369.51404,206.90575l0.07864-1.63361C369.5658,205.83105,369.53366,206.49554,369.51404,206.90575z" style=""></path>
			<path fill="#5ca4a9" d="M368.84668,184.51468l-0.02774-0.21858C368.83005,184.38336,368.83698,184.43793,368.84668,184.51468z" style=""></path>
			<path fill="#5ca4a9" d="M368.20441,178.70879c0.21243,1.37691,0.37027,3.4758,0.59167,5.40724l0.02286,0.18007
				C368.70013,183.38988,368.42172,180.01495,368.20441,178.70879z" style=""></path>
			<path fill="#5ca4a9" d="M363.3905,154.81728c0.44504,1.57062,0.80692,3.16449,1.2157,4.7449
				c-0.1958-0.83379-0.44989-1.93135,0.09894,0.22812C363.22995,153.79236,365.00714,161.02817,363.3905,154.81728z" style=""></path>
			<path fill="#5ca4a9" d="M358.63519,140.39073c0.90024,2.47467,0.02579-0.04285,0.08755,0.08238
				C358.10806,138.91991,357.93896,138.55243,358.63519,140.39073z" style=""></path>
			<path fill="#5ca4a9" d="M289.73901,57.09378l0.40417-0.15142C288.38824,55.89701,290.05759,57.04645,289.73901,57.09378z" style=""></path>
			<path fill="#5ca4a9" d="M270.28641,49.09729c0.56873,0.32864,1.1412,0.64684,1.6904,1.0141l1.00073,0.05882
				C272.09116,49.78707,271.20227,49.4115,270.28641,49.09729z" style=""></path>
			<polygon fill="#5ca4a9" points="259.93362,41.54374 260.79288,41.80473 257.5397,40.73196 			" style=""></polygon>
			<path fill="#5ca4a9" d="M84.85181,76.11451l1.36425,0.53465C87.10188,75.55543,86.31011,74.2569,84.85181,76.11451z" style=""></path>
			<path fill="#5ca4a9" d="M41.84818,144.34039c-1.02882,0.57359-2.16065,2.62769-1.89598,4.19525
				C40.59068,146.81544,41.67425,145.26201,41.84818,144.34039z" style=""></path>
			<path fill="#5ca4a9" d="M123.9185,352.36267l-1.6085-0.46387c0.96013,0.39026,1.90236,0.81104,2.88838,1.14282
				C124.77061,352.8172,124.3325,352.61325,123.9185,352.36267z" style=""></path>
		</g>
	</g>
</g>


<desc>Created with Snap</desc><defs></defs></g><g><g transform="matrix(1.024,0,0,-1.024,0,0)"><path d="M457 52L489 52Q513 52 513 26Q513 0 489 0L372 0Q348 0 348 26Q348 52 372 52L393 52L228 421L130 344L130 52L154 52Q178 52 178 26Q178 0 154 0L49 0Q39 0 32 7Q25 15 25 26Q25 52 49 52L73 52L73 585L49 585Q38 585 31 592Q25 600 25 611Q25 622 31 630Q38 638 49 638L154 638Q179 638 179 611Q179 585 154 585L130 585L130 404L362 585L350 585Q326 585 326 611Q326 638 350 638L468 638Q493 638 493 611Q493 585 468 585L438 585L275 455L457 52ZM1162 585L1162 52L1188 52Q1212 52 1212 26Q1212 0 1188 0L1081 0Q1070 0 1063 7Q1057 15 1057 26Q1057 52 1081 52L1105 52L1105 581L894 428Q884 420 874 420Q864 420 852 427L650 551L650 52L673 52Q697 52 697 26Q697 0 673 0L572 0Q548 0 548 26Q548 52 572 52L597 52L597 585L567 585Q543 585 543 611Q543 623 549 630Q556 638 567 638L598 638Q616 638 635 627L880 477L1085 627Q1101 638 1112 638L1187 638Q1212 638 1212 611Q1212 585 1187 585L1162 585ZM1432 422Q1467 456 1480 481Q1494 506 1494 532Q1494 559 1486 576Q1479 593 1464 601Q1450 609 1438 612Q1427 616 1409 618Q1391 620 1391 634Q1391 649 1416 649Q1463 649 1499 617Q1536 585 1536 531Q1536 460 1469 392Q1534 337 1563 287Q1593 237 1593 177Q1593 94 1544 42Q1496 -10 1427 -10Q1358 -10 1307 38Q1257 87 1257 171Q1257 221 1279 265Q1301 309 1322 330Q1343 351 1375 376Q1304 439 1304 502Q1304 540 1328 565Q1352 591 1386 591Q1420 591 1440 577Q1460 564 1460 546Q1460 529 1451 517Q1443 506 1428 506Q1413 506 1403 522Q1393 538 1393 560Q1375 560 1362 549Q1350 538 1350 520Q1350 503 1365 483Q1380 463 1393 451Q1407 440 1432 422ZM1303 167Q1303 113 1339 71Q1375 30 1423 30Q1471 30 1506 68Q1541 106 1541 158Q1541 257 1411 343Q1366 311 1334 266Q1303 221 1303 167Z" fill="#5ca4a9" style=""></path></g></g></g></svg>